<svg width="291" height="157" viewBox="0 0 291 157" fill="none" xmlns="http://www.w3.org/2000/svg">
    <g opacity="0.8">
        <circle cx="179.973" cy="39.4234" r="35.6676" transform="rotate(-0.783817 179.973 39.4234)" fill="white"/>
        <circle cx="179.973" cy="39.4234" r="35.6676" transform="rotate(-0.783817 179.973 39.4234)" fill="url(#paint0_linear_131_27693)"/>
        <circle cx="81.2846" cy="68.5176" r="23.7784" transform="rotate(-0.783817 81.2846 68.5176)" fill="white"/>
        <circle cx="81.2846" cy="68.5176" r="23.7784" transform="rotate(-0.783817 81.2846 68.5176)" fill="url(#paint1_linear_131_27693)"/>
        <circle cx="228.471" cy="66.504" r="47.5568" transform="rotate(-0.783817 228.471 66.504)" fill="white"/>
        <circle cx="228.471" cy="66.504" r="47.5568" transform="rotate(-0.783817 228.471 66.504)" fill="url(#paint2_linear_131_27693)"/>
        <path d="M87.371 99.5757C87.6661 121.148 70.4172 138.876 48.8445 139.171C27.2718 139.466 9.54437 122.217 9.24924 100.644C8.9541 79.0717 26.203 61.3443 47.7757 61.0492C69.3484 60.7541 87.0758 78.003 87.371 99.5757Z" fill="white"/>
        <path d="M87.371 99.5757C87.6661 121.148 70.4172 138.876 48.8445 139.171C27.2718 139.466 9.54437 122.217 9.24924 100.644C8.9541 79.0717 26.203 61.3443 47.7757 61.0492C69.3484 60.7541 87.0758 78.003 87.371 99.5757Z" fill="url(#paint3_linear_131_27693)"/>
        <circle cx="188.191" cy="102.16" r="53.2183" transform="rotate(-0.783817 188.191 102.16)" fill="white"/>
        <circle cx="188.191" cy="102.16" r="53.2183" transform="rotate(-0.783817 188.191 102.16)" fill="url(#paint4_linear_131_27693)"/>
        <circle cx="133.815" cy="59.3059" r="41.3291" transform="rotate(-0.783817 133.815 59.3059)" fill="white"/>
        <circle cx="133.815" cy="59.3059" r="41.3291" transform="rotate(-0.783817 133.815 59.3059)" fill="url(#paint5_linear_131_27693)"/>
        <circle cx="107.262" cy="104.966" r="49.2553" transform="rotate(-0.783817 107.262 104.966)" fill="white"/>
        <circle cx="107.262" cy="104.966" r="49.2553" transform="rotate(-0.783817 107.262 104.966)" fill="url(#paint6_linear_131_27693)"/>
    </g>
    <defs>
        <linearGradient id="paint0_linear_131_27693" x1="164.579" y1="75.4179" x2="205.581" y2="12.4144" gradientUnits="userSpaceOnUse">
            <stop stop-color="#4F98F5"/>
            <stop offset="1" stop-color="#4FCDF5" stop-opacity="0.3"/>
        </linearGradient>
        <linearGradient id="paint1_linear_131_27693" x1="71.0221" y1="92.514" x2="98.3571" y2="50.5116" gradientUnits="userSpaceOnUse">
            <stop stop-color="#4F98F5"/>
            <stop offset="1" stop-color="#4FCDF5" stop-opacity="0.3"/>
        </linearGradient>
        <linearGradient id="paint2_linear_131_27693" x1="207.946" y1="114.497" x2="262.616" y2="30.4919" gradientUnits="userSpaceOnUse">
            <stop stop-color="#4F98F5"/>
            <stop offset="1" stop-color="#4FCDF5" stop-opacity="0.3"/>
        </linearGradient>
        <linearGradient id="paint3_linear_131_27693" x1="24.6224" y1="139.168" x2="68.5818" y2="69.5563" gradientUnits="userSpaceOnUse">
            <stop stop-color="#4F98F5"/>
            <stop offset="1" stop-color="#4FCDF5" stop-opacity="0.3"/>
        </linearGradient>
        <linearGradient id="paint4_linear_131_27693" x1="165.223" y1="155.866" x2="226.401" y2="61.8606" gradientUnits="userSpaceOnUse">
            <stop stop-color="#4F98F5"/>
            <stop offset="1" stop-color="#4FCDF5" stop-opacity="0.3"/>
        </linearGradient>
        <linearGradient id="paint5_linear_131_27693" x1="115.978" y1="101.014" x2="163.489" y2="28.0097" gradientUnits="userSpaceOnUse">
            <stop stop-color="#4F98F5"/>
            <stop offset="1" stop-color="#4FCDF5" stop-opacity="0.3"/>
        </linearGradient>
        <linearGradient id="paint6_linear_131_27693" x1="86.0043" y1="154.672" x2="142.627" y2="67.6674" gradientUnits="userSpaceOnUse">
            <stop stop-color="#4F98F5"/>
            <stop offset="1" stop-color="#4FCDF5" stop-opacity="0.3"/>
        </linearGradient>
    </defs>
</svg>
