<svg width="194" height="140" viewBox="0 0 194 140" fill="none" xmlns="http://www.w3.org/2000/svg">
    <g opacity="0.8">
        <circle cx="143.738" cy="90.9245" r="37.2316" transform="rotate(13.0501 143.738 90.9245)" fill="white"/>
        <circle cx="143.738" cy="90.9245" r="37.2316" transform="rotate(13.0501 143.738 90.9245)" fill="url(#paint0_linear_131_27672)"/>
        <path d="M137.567 114.7C134.794 126.661 122.849 134.111 110.887 131.338C98.9255 128.565 91.4761 116.621 94.2487 104.659C97.0214 92.697 108.966 85.2477 120.928 88.0203C132.89 90.7929 140.339 102.738 137.567 114.7Z" fill="white"/>
        <path d="M137.567 114.7C134.794 126.661 122.849 134.111 110.887 131.338C98.9255 128.565 91.4761 116.621 94.2487 104.659C97.0214 92.697 108.966 85.2477 120.928 88.0203C132.89 90.7929 140.339 102.738 137.567 114.7Z" fill="url(#paint1_linear_131_27672)"/>
        <circle cx="88.6639" cy="66.3995" r="49.6421" transform="rotate(13.0501 88.6639 66.3995)" fill="white"/>
        <circle cx="88.6639" cy="66.3995" r="49.6421" transform="rotate(13.0501 88.6639 66.3995)" fill="url(#paint2_linear_131_27672)"/>
        <path d="M80.3423 105.195C76.6516 121.117 60.7522 131.033 44.8298 127.343C28.9074 123.652 18.9916 107.752 22.6823 91.83C26.3729 75.9076 42.2724 65.9919 58.1948 69.6825C74.1171 73.3731 84.0329 89.2726 80.3423 105.195Z" fill="white"/>
        <path d="M80.3423 105.195C76.6516 121.117 60.7522 131.033 44.8298 127.343C28.9074 123.652 18.9916 107.752 22.6823 91.83C26.3729 75.9076 42.2724 65.9919 58.1948 69.6825C74.1171 73.3731 84.0329 89.2726 80.3423 105.195Z" fill="url(#paint3_linear_131_27672)"/>
    </g>
    <defs>
        <linearGradient id="paint0_linear_131_27672" x1="127.669" y1="128.497" x2="170.469" y2="62.7311" gradientUnits="userSpaceOnUse">
            <stop stop-color="#4F98F5"/>
            <stop offset="1" stop-color="#4FCDF5" stop-opacity="0.3"/>
        </linearGradient>
        <linearGradient id="paint1_linear_131_27672" x1="96.1425" y1="131.811" x2="129.909" y2="99.3234" gradientUnits="userSpaceOnUse">
            <stop stop-color="#4F98F5"/>
            <stop offset="1" stop-color="#4FCDF5" stop-opacity="0.3"/>
        </linearGradient>
        <linearGradient id="paint2_linear_131_27672" x1="67.2389" y1="116.497" x2="124.306" y2="28.8083" gradientUnits="userSpaceOnUse">
            <stop stop-color="#4F98F5"/>
            <stop offset="1" stop-color="#4FCDF5" stop-opacity="0.3"/>
        </linearGradient>
        <linearGradient id="paint3_linear_131_27672" x1="25.203" y1="127.971" x2="70.1492" y2="84.7279" gradientUnits="userSpaceOnUse">
            <stop stop-color="#4F98F5"/>
            <stop offset="1" stop-color="#4FCDF5" stop-opacity="0.3"/>
        </linearGradient>
    </defs>
</svg>
