<svg width="1440" height="373" viewBox="0 0 1440 373" fill="none" xmlns="http://www.w3.org/2000/svg">
    <path d="M178 162.5L48 237L-5 261.5V436.5L1459.5 441V245L1364 201.5L1324.5 175.5L1303.5 150L1295.5 132L1268.5 103.5L1239 85.5L1150 162.5L1138.5 169L1121.5 171.5L1102.5 182L1085.5 196H1073L1036 158.5L986 105L973 114.5L963.5 129L946.5 141.5L930.5 153.5L914 162.5L899.5 147.5L871.5 132.5L841 125.5L831.5 116L825 105L780.5 39.5L742.5 4H737.5L663 55.5L638.5 71H628L599 45L581.5 41L517.5 99.5L494 103.5L461 120.5L436.5 147.5L432 158L414.5 159.5L319.5 86L308.5 87.5L264 124.5L251 142.5L230.5 147.5L178 162.5Z" fill="url(#paint0_linear_123_27523)"/>
    <path d="M189 153L47 237L80 225L93.5 219.5L104 215L117.5 208.5L125.5 202.5L154.5 186L166 179.5L182.5 173L194 171L191 179.5L184.5 188L161 207L151.5 222.5L149.5 236.5V240L152.5 243C181.833 232.833 240.6 212.5 241 212.5C241.4 212.5 245.833 211.167 248 210.5L255 208H262L267.5 210.5L280 211.5L290 210.5L296 207L298.5 204.5L301 200L302.5 196L305.5 192L310 189.5L315.5 188L318 185V182L315 181L308.5 183L301 186L292.5 187H272L277.5 182L284.5 174.5L292.5 164.5L298.5 155L303.5 144L306.5 126.5V114.5L308.5 104L310 98.5L314 95H321L377 143L416.5 173.5L419 178.5L416.5 185V191L420.5 192L425.5 191L431 188L438 186L442 189.5V195L434.5 204.5L424.5 215L410 232.5L394.5 255L408.5 251L428 236L450 219L455.5 220L459.5 224L456.5 232.5V242.5L459.5 246L485 195L501.5 167L507 157.5L510.5 155L512.5 157.5L513.5 164L510.5 173.5V178L513.5 181L519 178L525.5 172.5L528 167L535.5 157.5L543 146.5L551.5 133.5L557.5 121.5L564 107.5L566.5 100.5L562 97.5L555.5 96.5V92L571.5 68L576 59L582 48L586 45.5L589 45L607.5 61L621.5 75.5L622.5 84.5L618.5 91L607 97.5L599 107.5L607 104L613.5 100L623 94.5L638.5 86L649 84L593.5 165L586.5 175H594.5L598 176.5L602.5 180L596 195L593.5 199L589 201.5L586.5 204.5L585 209L582 214.5L585 217.5L590.5 220L586.5 236L582 259.5L590.5 255L606 238.5L615 226.5L624.5 217.5L646.5 199L651.5 192.5L654 186L651.5 180L644.5 176.5V165L646.5 150L651.5 137L658.5 117L669.5 100L674.5 91L682 79.5H686.5H695.5L698 72L704.5 61.5L716.5 49.5L721.5 43L723.5 38V29.5V21L728.5 15L734 9.5H740.5L750.5 21L765 38L789 72L805.5 100L850.5 142.5L856.5 146.5L864.5 148H869L876 146.5H881.5L888.5 150L895.5 154L903 161.5L906.5 167.5V174L895.5 183L880.5 195L860 212L870.5 211L887.5 204.5L903 195L920 180L937.5 165L946 174L950 172.5L954.5 161.5L975.5 130.5L985 119.5H990.5L994 124.5L999.5 134.5L1022.5 163.5L1039.5 180L1064.5 199L1053.5 202L1043 209L1016 228L1053.5 213L1078 206L1089.5 202L1098.5 195L1111.5 186L1125 180L1142 176.5L1125 199L1136 202L1146 199L1153.5 195H1160L1163 202V209L1167 213L1170.5 209H1178L1186 216H1195.5L1203 209C1204.33 202.833 1207 188.9 1207 182.5C1207 174.692 1205.57 173.552 1203.18 171.643L1203 171.5C1201 169.9 1202.17 165.5 1203 163.5L1207 153L1213 146.5L1225.5 138.5L1236.5 127.5L1244 111L1242 97.5L1239.5 88L1252 93L1263 103L1278.5 115.5L1290.5 134L1300.5 153L1317 176.5L1335.5 195L1353 206L1375 213C1384.5 216.5 1403.8 223.5 1405 223.5C1406.2 223.5 1424.83 234.5 1434 240L1430 231L1422.5 223.5L1407 216L1375 202L1348.5 188.5L1326.5 171.5L1307.5 146.5L1295.5 124.5L1278.5 107L1246 84.5L1236.5 82.5L1223 93L1172.5 138.5L1144 165L1131 167L1115.5 171.5L1101 180L1085.5 195H1075.5L1070 190.5L1044.5 165L1022.5 138.5L990 103H982L974.5 111L961.5 127.5L921.5 156H911L902 146.5L887.5 138.5L865.5 127.5L839.5 122.5L830.5 112.5L819 91L805 68L784.5 41L748 4L738 0L708.5 16.5L638.5 70.5H627.5L602.5 46.5L591 39H580L567 48.5L544 73L525.5 87.5L514.5 98L495.5 103L470.5 112.5L449.5 127.5L430 156H419.5L408.5 153L321 85H308.5L300 91L249 137.5L229 147L189 153Z" fill="#EBF0F4"/>
    <path d="M323 143L314 161.5L323 156L329.5 152L336 147L340.5 146.5H347L350.5 149L356.5 153L363 161.5H369.5L366.5 153L360 146.5L352 137.5L340.5 126.5L334.5 123L330 124.5L327 131.5L323 143Z" fill="#EBF0F4"/>
    <path d="M349 196V186H356.5L363 189.5L367.5 194L371 201.5L369.5 209L364.5 211.5H356.5L350.5 204.5L349 196Z" fill="#EBF0F4"/>
    <path d="M728.5 61.5L734 59L740.5 63.5L743.5 70.5L754 79.5L766.5 91L781.5 107.5L799.5 131.5L839.5 188L820.5 181L803 167L788 152L771.5 133.5L758.5 117L750.5 100.5C749.167 101.667 746.3 104.3 745.5 105.5C744.7 106.7 741.833 110.667 740.5 112.5L728.5 121.5L724 128.5L719 139H712L708.5 133.5V122.5L712 112.5L716.5 100L723.5 84L725.5 70.5L728.5 61.5Z" fill="#EBF0F4"/>
    <path d="M690 161.5L695.5 159H700.5L712 168.5L731 175L747 188L763 209L789 224L810 226.5L834.5 229.5L847 236L858.5 244L834.5 242.5L808 238.5H788L767.5 239.5L754 236L740.5 229.5L734.5 222V212.5L728.5 201.5L719 191L707 185L695.5 175L690 167V161.5Z" fill="#EBF0F4"/>
    <path d="M936.5 212.5L944 206.5L952 209L958.5 217.5L970.5 234L976 246L975.5 250.5L963.5 242.5L952 244L946 247H936.5L934 236L932.5 222L936.5 212.5Z" fill="#EBF0F4"/>
    <path d="M997 172.5L1002 167.5L1012.5 172.5C1013.67 173.333 1016.3 175.3 1017.5 176.5C1018.7 177.7 1021.33 180 1022.5 181L1029 188L1032 192.5L1030 197.5H1021L1012.5 192.5L1004.5 188L999.5 181L997 172.5Z" fill="#EBF0F4"/>
    <path d="M1066.5 221L1075.5 219.5H1079.5L1082.5 224V228L1076.5 233L1066.5 239.5L1055 244L1039.5 250.5L1017.5 254.5L1035 239.5L1044.5 232.5L1052.5 227.5L1061 224L1066.5 221Z" fill="#EBF0F4"/>
    <path d="M1146 222L1152.5 214.5L1156.5 239.5L1152.5 247L1144 252.5L1136 254.5L1128.5 257L1119.5 259H1114L1111.5 252.5L1116.5 244.5L1125 239.5L1137.5 232.5L1146 222Z" fill="#EBF0F4"/>
    <path d="M1254.5 152L1259 148L1263 150L1270.5 159.5L1275.5 165L1283 169.5L1292 176.5L1301 185L1309.5 195L1318.5 209L1326.5 224L1320.5 222L1313.5 217.5L1305 211L1294.5 199.5L1288.5 195H1283L1280.5 197.5L1278.5 202L1275.5 206.5H1271.5L1268.5 206L1267 201L1262.5 196L1255.5 197.5L1252 204.5L1246 212.5L1241 218.5L1236.5 224L1234 219.5V211L1236.5 199L1242 186L1248 171.5L1252 160L1254.5 152Z" fill="#EBF0F4"/>
    <path d="M1364.5 234.5L1350 238L1367.5 244L1376.5 247L1385 252.5L1393 259L1400 261.5L1409.5 263.5H1420L1412 254.5L1398.5 244.5L1385 238L1364.5 234.5Z" fill="#EBF0F4"/>
    <defs>
        <linearGradient id="paint0_linear_123_27523" x1="727.25" y1="4" x2="727" y2="552.5" gradientUnits="userSpaceOnUse">
            <stop offset="0.271517" stop-color="#B4D0EB"/>
            <stop offset="0.807451" stop-color="#CADFF4" stop-opacity="0"/>
        </linearGradient>
    </defs>
</svg>
