<?xml version="1.0" encoding="utf-8"?>
<!-- Generator: Adobe Illustrator 24.3.0, SVG Export Plug-In . SVG Version: 6.00 Build 0)  -->
<svg version="1.1" id="Calque_1" xmlns="http://www.w3.org/2000/svg" xmlns:xlink="http://www.w3.org/1999/xlink" x="0px" y="0px"
	 viewBox="0 0 283.6 189.1" style="enable-background:new 0 0 283.6 189.1;" xml:space="preserve">
<style type="text/css">
	.st0{fill:#243E90;}
	.st1{fill:#034EA2;}
	.st2{fill:#FFCD05;}
</style>
<g>
	<g>
		<rect class="st0" width="283.6" height="189.1"/>
		<path class="st1" d="M141.8,94.5"/>
	</g>
	<g>
		<polygon class="st2" points="135.7,41.2 141.7,36.8 147.7,41.2 145.4,34.1 151.5,29.8 144,29.8 141.7,22.6 139.4,29.8 131.9,29.8 
			138,34.1 		"/>
		<polygon class="st2" points="104.8,49.5 110.7,45.1 116.7,49.5 114.5,42.4 120.5,38.1 113,38.1 110.7,30.9 108.4,38.1 101,38.1 
			107,42.4 		"/>
		<polygon class="st2" points="88.1,53.6 85.8,60.8 78.3,60.8 84.4,65.2 82.1,72.2 88.1,67.9 94.1,72.2 91.8,65.2 97.9,60.8 
			90.4,60.8 		"/>
		<polygon class="st2" points="79.8,98.8 85.8,103.1 83.5,96.1 89.6,91.7 82.1,91.7 79.8,84.6 77.5,91.7 70,91.7 76.1,96.1 
			73.8,103.1 		"/>
		<polygon class="st2" points="90.4,122.7 88.1,115.6 85.8,122.7 78.3,122.7 84.4,127.1 82.1,134.2 88.1,129.8 94.1,134.2 
			91.8,127.1 97.9,122.7 		"/>
		<polygon class="st2" points="113.1,145.4 110.8,138.3 108.5,145.5 101,145.4 107.1,149.8 104.8,156.9 110.8,152.5 116.8,156.9 
			114.5,149.8 120.6,145.4 		"/>
		<polygon class="st2" points="144,153.7 141.7,146.5 139.4,153.7 131.9,153.7 138,158 135.7,165.1 141.7,160.7 147.7,165.1 
			145.4,158 151.5,153.7 		"/>
		<polygon class="st2" points="174.9,145.4 172.7,138.3 170.4,145.5 162.9,145.4 168.9,149.8 166.7,156.9 172.7,152.5 178.6,156.9 
			176.4,149.8 182.4,145.4 		"/>
		<polygon class="st2" points="197.7,122.7 195.4,115.6 193.1,122.7 185.6,122.7 191.7,127.1 189.4,134.2 195.4,129.8 201.3,134.2 
			199.1,127.1 205.1,122.7 		"/>
		<polygon class="st2" points="213.4,91.6 205.9,91.6 203.6,84.5 201.3,91.6 193.8,91.6 199.9,96 197.6,103.1 203.6,98.7 
			209.6,103.1 207.3,96 		"/>
		<polygon class="st2" points="189.4,72.1 195.4,67.8 201.3,72.1 199.1,65.1 205.1,60.7 197.7,60.7 195.4,53.5 193.1,60.7 
			185.6,60.7 191.7,65.1 		"/>
		<polygon class="st2" points="172.7,30.9 170.4,38.1 163,38.1 169,42.5 166.8,49.5 172.7,45.1 178.7,49.5 176.4,42.5 182.5,38.1 
			175,38.1 		"/>
	</g>
</g>
</svg>
