<?xml version="1.0" encoding="utf-8"?>
<!-- Generator: Adobe Illustrator 24.3.0, SVG Export Plug-In . SVG Version: 6.00 Build 0)  -->
<svg version="1.1" id="Layer_1" xmlns="http://www.w3.org/2000/svg" xmlns:xlink="http://www.w3.org/1999/xlink" x="0px" y="0px"
	 viewBox="0 0 1410.3 150" style="enable-background:new 0 0 1410.3 150;" xml:space="preserve">
<style type="text/css">
	.st0{fill:#00205D;}
</style>
<g>
	<g>
		<circle class="st0" cx="8.3" cy="8.4" r="8.3"/>
		<circle class="st0" cx="30.5" cy="30.6" r="8.3"/>
		<circle class="st0" cx="52.8" cy="52.8" r="8.3"/>
		<circle class="st0" cx="75" cy="75" r="8.3"/>
		<circle class="st0" cx="8.3" cy="41.7" r="8.3"/>
		<circle class="st0" cx="8.3" cy="75" r="8.3"/>
		<circle class="st0" cx="8.3" cy="108.3" r="8.3"/>
		<circle class="st0" cx="8.3" cy="141.6" r="8.3"/>
		<circle class="st0" cx="141.6" cy="8.4" r="8.3"/>
		<circle class="st0" cx="141.6" cy="41.7" r="8.3"/>
		<circle class="st0" cx="141.6" cy="75" r="8.3"/>
		<circle class="st0" cx="141.6" cy="108.3" r="8.3"/>
		<circle class="st0" cx="141.6" cy="141.6" r="8.3"/>
		<circle class="st0" cx="97.2" cy="52.8" r="8.3"/>
		<circle class="st0" cx="119.4" cy="30.6" r="8.3"/>
		<polygon class="st0" points="141.9,141.6 141.4,141.6 141.4,9 75,75.4 8.6,9 8.6,141.6 8.1,141.6 8.1,7.8 75,74.6 141.9,7.8 		"/>
	</g>
	<g>
		<g>
			<circle class="st0" cx="1268.7" cy="8.4" r="8.3"/>
			<circle class="st0" cx="1290.9" cy="30.6" r="8.3"/>
			<circle class="st0" cx="1313.1" cy="52.8" r="8.3"/>
			<circle class="st0" cx="1335.3" cy="75" r="8.3"/>
			<circle class="st0" cx="1268.7" cy="41.7" r="8.3"/>
			<circle class="st0" cx="1268.7" cy="75" r="8.3"/>
			<circle class="st0" cx="1268.7" cy="108.3" r="8.3"/>
			<circle class="st0" cx="1268.7" cy="141.6" r="8.3"/>
			<circle class="st0" cx="1402" cy="8.4" r="8.3"/>
			<circle class="st0" cx="1402" cy="41.7" r="8.3"/>
			<circle class="st0" cx="1402" cy="75" r="8.3"/>
			<circle class="st0" cx="1402" cy="108.3" r="8.3"/>
			<circle class="st0" cx="1402" cy="141.6" r="8.3"/>
			<circle class="st0" cx="1357.5" cy="52.8" r="8.3"/>
			<circle class="st0" cx="1379.8" cy="30.6" r="8.3"/>
		</g>
		<polygon class="st0" points="1402.2,141.6 1401.7,141.6 1401.7,9 1335.3,75.4 1268.9,9 1268.9,141.6 1268.4,141.6 1268.4,7.8 
			1335.3,74.6 1402.2,7.8 		"/>
	</g>
	<g>
		<circle class="st0" cx="531.4" cy="8.3" r="8.3"/>
		<circle class="st0" cx="531.4" cy="41.7" r="8.3"/>
		<circle class="st0" cx="531.4" cy="75" r="8.3"/>
		<circle class="st0" cx="531.4" cy="108.3" r="8.3"/>
		<circle class="st0" cx="531.4" cy="141.7" r="8.3"/>
		<circle class="st0" cx="564.8" cy="141.7" r="8.3"/>
		<circle class="st0" cx="598.3" cy="141.7" r="8.3"/>
		<polygon class="st0" points="598.3,141.9 531.1,141.9 531.1,8.3 531.6,8.3 531.6,141.4 598.3,141.4 		"/>
	</g>
	<g>
		<circle class="st0" cx="680.9" cy="8.5" r="8.3"/>
		<circle class="st0" cx="708" cy="16.9" r="8.3"/>
		<circle class="st0" cx="708" cy="83.3" r="8.3"/>
		<circle class="st0" cx="722.3" cy="108.3" r="8.3"/>
		<circle class="st0" cx="722.3" cy="41.7" r="8.3"/>
		<circle class="st0" cx="708" cy="133.3" r="8.3"/>
		<circle class="st0" cx="655.7" cy="16.9" r="8.3"/>
		<circle class="st0" cx="641" cy="41.7" r="8.3"/>
		<circle class="st0" cx="641" cy="108.3" r="8.3"/>
		<circle class="st0" cx="655.7" cy="66.7" r="8.3"/>
		<circle class="st0" cx="655.7" cy="133.3" r="8.3"/>
		<circle class="st0" cx="680.9" cy="75" r="8.3"/>
		<circle class="st0" cx="680.9" cy="141.7" r="8.3"/>
		<polygon class="st0" points="680.9,141.9 680.9,141.9 655.5,133.5 655.5,133.5 640.8,108.5 641.3,108.2 655.9,133.1 680.9,141.4 
			707.8,133.1 722,108.3 707.8,83.5 680.9,75.2 655.5,66.9 640.8,41.7 655.5,16.7 680.9,8.3 708.1,16.7 708.2,16.7 722.5,41.5 
			722.1,41.8 707.8,17.1 680.9,8.8 655.9,17.1 641.3,41.7 655.9,66.5 681,74.8 708.1,83.1 708.2,83.2 722.6,108.3 722.5,108.5 
			708.1,133.5 		"/>
	</g>
	<g>
		<circle class="st0" cx="263.7" cy="8.3" r="8.3"/>
		<circle class="st0" cx="249.3" cy="41.7" r="8.3"/>
		<circle class="st0" cx="234.9" cy="75" r="8.3"/>
		<circle class="st0" cx="277.7" cy="108.3" r="8.3"/>
		<circle class="st0" cx="248.4" cy="108.3" r="8.3"/>
		<circle class="st0" cx="220.5" cy="108.3" r="8.3"/>
		<circle class="st0" cx="321.4" cy="141.7" r="8.3"/>
		<circle class="st0" cx="278.1" cy="41.7" r="8.3"/>
		<circle class="st0" cx="292.6" cy="75" r="8.3"/>
		<circle class="st0" cx="307" cy="108.3" r="8.3"/>
		<circle class="st0" cx="206.1" cy="141.7" r="8.3"/>
		<polygon class="st0" points="321.1,141.8 263.7,9 206.3,141.8 205.9,141.6 263.7,7.7 321.6,141.6 		"/>
		<rect x="220.9" y="108.1" class="st0" width="86.1" height="0.5"/>
	</g>
	<g>
		<circle class="st0" cx="384.1" cy="8.3" r="8.3"/>
		<circle class="st0" cx="384.1" cy="41.7" r="8.3"/>
		<circle class="st0" cx="384.1" cy="75" r="8.3"/>
		<circle class="st0" cx="384.1" cy="108.3" r="8.3"/>
		<circle class="st0" cx="384.1" cy="141.7" r="8.3"/>
		<circle class="st0" cx="417.6" cy="8.3" r="8.3"/>
		<circle class="st0" cx="417.6" cy="75" r="8.3"/>
		<circle class="st0" cx="417.6" cy="141.7" r="8.3"/>
		<circle class="st0" cx="451" cy="8.3" r="8.3"/>
		<circle class="st0" cx="451" cy="75" r="8.3"/>
		<circle class="st0" cx="451" cy="141.7" r="8.3"/>
		<polygon class="st0" points="451,141.9 383.9,141.9 383.9,8.1 451,8.1 451,8.6 384.4,8.6 384.4,141.4 451,141.4 		"/>
		<rect x="384.9" y="75.2" class="st0" width="66.9" height="0.5"/>
	</g>
	<g>
		<circle class="st0" cx="819.8" cy="8.3" r="8.3"/>
		<circle class="st0" cx="790.4" cy="8.3" r="8.3"/>
		<circle class="st0" cx="761" cy="8.3" r="8.3"/>
		<circle class="st0" cx="878.6" cy="8.3" r="8.3"/>
		<circle class="st0" cx="849.2" cy="8.3" r="8.3"/>
		<circle class="st0" cx="819.8" cy="41.7" r="8.3"/>
		<circle class="st0" cx="819.8" cy="75" r="8.3"/>
		<circle class="st0" cx="819.8" cy="108.3" r="8.3"/>
		<circle class="st0" cx="819.8" cy="141.7" r="8.3"/>
		<rect x="819.5" y="8.3" class="st0" width="0.5" height="133.3"/>
		<rect x="761" y="8.1" class="st0" width="117.6" height="0.5"/>
	</g>
	<g>
		<circle class="st0" cx="931.8" cy="8.3" r="8.3"/>
		<circle class="st0" cx="931.8" cy="41.7" r="8.3"/>
		<circle class="st0" cx="1008.3" cy="41.7" r="8.3"/>
		<circle class="st0" cx="931.8" cy="75" r="8.3"/>
		<circle class="st0" cx="931.8" cy="108.3" r="8.3"/>
		<circle class="st0" cx="931.8" cy="141.7" r="8.3"/>
		<circle class="st0" cx="965.3" cy="8.3" r="8.3"/>
		<circle class="st0" cx="965.3" cy="75" r="8.3"/>
		<circle class="st0" cx="998.9" cy="119.4" r="8.3"/>
		<circle class="st0" cx="982.1" cy="97.2" r="8.3"/>
		<circle class="st0" cx="995.2" cy="13.3" r="8.3"/>
		<circle class="st0" cx="995.2" cy="70.2" r="8.3"/>
		<circle class="st0" cx="1015.7" cy="141.7" r="8.3"/>
		<path class="st0" d="M932.1,141.7h-0.5V8.1h33.7l30.1,5l0.1,0.1l13.2,28.4l0,0.1l-13.2,28.6l-0.1,0l-29.9,4.8l-33.2,0V141.7z
			 M932.1,74.8h33.2L995,70l13-28.3l-13-28.1l-29.8-5l-33.2,0V74.8z"/>
		
			<rect x="990.2" y="66.5" transform="matrix(0.7973 -0.6036 0.6036 0.7973 135.4012 619.8375)" class="st0" width="0.5" height="83.6"/>
	</g>
	<g>
		<circle class="st0" cx="1072.8" cy="75" r="8.3"/>
		<circle class="st0" cx="1206.7" cy="75" r="8.3"/>
		<circle class="st0" cx="1140" cy="8.3" r="8.3"/>
		<circle class="st0" cx="1114.4" cy="11.9" r="8.3"/>
		<circle class="st0" cx="1076.3" cy="50" r="8.3"/>
		<circle class="st0" cx="1076.3" cy="100" r="8.3"/>
		<circle class="st0" cx="1203.1" cy="100" r="8.3"/>
		<circle class="st0" cx="1114.4" cy="137.9" r="8.3"/>
		<circle class="st0" cx="1164.5" cy="11.9" r="8.3"/>
		<circle class="st0" cx="1164.5" cy="138.1" r="8.3"/>
		<circle class="st0" cx="1190" cy="125" r="8.3"/>
		<circle class="st0" cx="1089.4" cy="125" r="8.3"/>
		<circle class="st0" cx="1089.4" cy="25" r="8.3"/>
		<circle class="st0" cx="1190" cy="25" r="8.3"/>
		<circle class="st0" cx="1203.1" cy="50" r="8.3"/>
		<circle class="st0" cx="1140" cy="141.5" r="8.3"/>
		<path class="st0" d="M1140,141.7L1140,141.7l-25.7-3.6l-25-13l0-0.1l-13.2-25.1l-3.5-25l0,0l3.6-25.1l13.2-25.1l0.1,0l25-13.2
			l25.7-3.5l24.6,3.6l25.6,13.2l0,0.1l13.2,25.1l3.5,25l0,0l-3.6,25.1l-13.2,25l-0.1,0l-25.6,13.2L1140,141.7z M1114.4,137.7
			l25.5,3.5l24.4-3.3l25.4-13.1l13.1-24.9l3.5-24.9l-3.5-24.9l-13.1-24.9l-25.4-13.1L1140,8.6l-25.5,3.5l-24.8,13.1l-13.1,24.9
			L1073,75l3.5,24.9l13.1,24.9L1114.4,137.7z"/>
	</g>
</g>
</svg>
