<?xml version="1.0" encoding="utf-8"?>
<!-- (c) Jan Mirus  -->
<svg version="1.1" id="Ebene_1" xmlns="http://www.w3.org/2000/svg" xmlns:xlink="http://www.w3.org/1999/xlink" x="0px" y="0px"
	 viewBox="0 0 1920 1080" style="enable-background:new 0 0 1920 1080;" xml:space="preserve">

<g id="BG">
	<rect x="-0.5" y="-0.5" width="1920" height="1080" fill="rgba(170,73,36, 1)">
      <!--<animate     
      attributeName="fill" 
      begin="2s"
      from="rgba(170,73,36)" 
      to="rgba(170,73,36)"
      values="rgba(170,73,36); rgba(2,139,162); rgba(169,171,54); rgba(2,139,162); rgba(170,73,36)"
      keyTimes="0; .25; .5; .75; 1"
      dur="16s" 
      repeatCount="indefinite" 
   />-->
   </rect>
</g>
   
   

   
<g id="Branding" fill="white">
	<g id="Logo">
		<path id="antenna_mid" d="M807.06,170.7c-6.56,0.18-26.24,0.93-26.24,0.93c-0.35,0.01-0.34,0.31,0.01,0.32
			c0,0,19.7,0.53,26.27,0.63c44.14,0.69,160.89,1.33,201.01,1.53c-0.71-2.41-0.82-4.85-0.37-7.24
			C967.39,167.54,851.08,169.5,807.06,170.7z"/>
		<path id="antenna_high" d="M865.5,109.55c-6.21-0.48-24.85-1.55-24.85-1.55c-0.22-0.01-0.31,0.21-0.25,0.37
			l183.48,22.6c2.75-2.22,5.77-4.17,9.12-5.71c0.28-0.13,0.58-0.22,0.86-0.34C986,120.34,900.99,112.29,865.5,109.55z"/>
		<path id="antenna_low" d="M1033,211.68c-3.35-1.54-6.38-3.49-9.12-5.71l-183.48,22.6c-0.06,0.17,0.03,0.39,0.25,0.37
			c0,0,18.65-1.07,24.85-1.55c35.49-2.74,120.5-10.79,168.36-15.37C1033.58,211.9,1033.28,211.81,1033,211.68z"/>
      
		<path id="head" d="M1095.86,145.11
			c-12.67-20.39-39.29-26.79-59.84-14.61c-0.27,0.16-0.55,0.28-0.81,0.45c-4.75,2.95-8.7,6.68-11.88,10.9
			c-4.82,6.39-7.76,13.92-8.62,21.74c-0.45,4.07-0.34,8.21,0.37,12.31c0.94,5.42,2.89,10.75,5.97,15.7
			c1.36,2.18,2.91,4.17,4.56,6.03c4.44,4.99,9.84,8.79,15.75,11.28c12.72,5.35,27.73,4.69,40.34-3.15
			C1102.36,192.92,1108.7,165.77,1095.86,145.11z M1077.21,171.27c-5.02,3.19-13.07-0.48-17.99-8.2s-4.83-16.58,0.18-19.77
			c5.02-3.19,13.07,0.48,17.99,8.2C1082.31,159.23,1082.22,168.08,1077.21,171.27z M1087.7,149.79c-4.42-6.79-6.64-13.18-4.97-14.26
			c1.67-1.09,6.61,3.53,11.03,10.32c4.42,6.79,6.64,13.18,4.97,14.26C1097.05,161.21,1092.12,156.58,1087.7,149.79z">
         <animate
            id="blink"
            attributeName="d"
            to="M1095.86,145.11c-12.67-20.39-39.29-26.79-59.84-14.61c-0.27,0.16-0.55,0.28-0.81,0.45
			c-4.75,2.95-8.7,6.68-11.88,10.9c-4.82,6.39-7.76,13.92-8.62,21.74c-0.45,4.07-0.34,8.21,0.37,12.31
			c0.94,5.42,2.89,10.75,5.97,15.7c1.36,2.18,2.91,4.17,4.56,6.03c4.44,4.99,9.84,8.79,15.75,11.28
			c12.72,5.35,27.73,4.69,40.34-3.15C1102.36,192.92,1108.7,165.77,1095.86,145.11z M1069.9,157.37c-5.75,1.52-11.86,3.16-12,2.67
			c-0.15-0.6,5.92-1.79,11.66-3.32c5.75-1.52,9.08-2.47,9.16-2.21C1078.86,155.31,1075.64,155.85,1069.9,157.37z M1088.48,150.68
			c0,0,0.98-1.42,2.21-2.99c1.23-1.57,1.92-2.95,2.25-2.7c0.49,0.39-0.57,1.22-1.8,2.78
			C1089.91,149.35,1089.06,151.24,1088.48,150.68z"
            dur="0.4s"
            begin="2s;blink.end+4s"
            repeatCount="2"
         />

      </path>
	</g>
   
	<g id="Schriftmarke">
		<g>
			<path d="M851.89,337c-3.46,0-6.34-2.74-6.34-6.34v-40.63c0-9.22-2.59-15.56-13.26-15.56
				c-8.36,0-13.83,3.89-16.71,9.22c0.15,1.59,0.29,3.32,0.29,5.05v41.92c0,3.6-2.88,6.34-6.34,6.34s-6.34-2.74-6.34-6.34v-40.63
				c0-9.22-2.59-15.56-13.26-15.56c-7.92,0-13.4,3.31-16.43,8.35v47.84c0,3.6-2.88,6.34-6.34,6.34s-6.34-2.88-6.34-6.34V282.1
				c0-5.76-1.58-7.49-4.47-9.07c-1.58-0.86-2.45-2.31-2.45-4.18c0-3.74,2.74-5.47,6.2-5.47c2.31,0,5.47,1.15,7.78,3.02
				c1.3,1.3,2.31,2.74,3.03,4.18c5.04-5.04,12.1-8.06,21.76-8.06c10.09,0,16.14,3.74,19.45,9.51c4.9-5.91,12.39-9.51,22.76-9.51
				c18.01,0,23.34,11.09,23.34,26.22v41.92C858.22,334.26,855.34,337,851.89,337z"/>
			<path d="M929.39,337c-2.74,0-5.76-1.3-7.49-3.03c-1.44-1.15-2.31-2.74-2.88-4.32c-5.47,5.91-13.83,7.35-20.17,7.35
				c-17.86,0-25.21-9.22-25.21-21.18v-1.16c0-11.96,8.21-20.89,26.51-20.89h16.43v-3.46c0-11.53-2.74-17.29-14.84-17.29
				c-6.77,0-11.09,1.58-14.7,3.6c-6.48,3.46-11.81-5.19-5.76-9.08c5.76-3.6,13.26-5.04,21.18-5.04c20.6,0,26.66,9.94,26.66,28.96
				v26.79c0,5.77,1.3,7.5,4.03,9.08c1.59,0.86,2.45,2.3,2.45,4.18C935.59,335.27,932.99,337,929.39,337z M916.57,303.57h-15.13
				c-12.1,0-15.28,5.33-15.28,11.24v1.15c0,6.05,3.32,11.24,14.84,11.24c9.65,0,15.56-4.9,15.56-15.13v-8.5L916.57,303.57
				L916.57,303.57z"/>
			<path d="M1003.15,337c-3.46,0-6.2-2.74-6.2-6.34v-40.63c0-9.22-2.59-15.56-13.68-15.56c-8.22,0-14.27,3.6-17.44,9.08
				v47.11c0,3.6-2.88,6.34-6.34,6.34s-6.34-2.88-6.34-6.34V282.1c0-5.76-1.58-7.49-4.47-9.07c-1.58-0.86-2.45-2.31-2.45-4.18
				c0-3.74,2.74-5.47,6.2-5.47c2.3,0,5.47,1.15,7.78,3.02c1.44,1.45,2.45,3.03,3.17,4.76c5.04-5.48,12.39-8.64,22.48-8.64
				c18.3,0,23.63,11.38,23.63,26.37v41.78C1009.49,334.26,1006.76,337,1003.15,337z"/>
			<path d="M1060.92,336.14h-4.32c-19.88,0-25.07-12.39-25.07-31.12v-30.83h-4.18c-3.03,0-5.47-2.45-5.47-5.33
				c0-3.02,2.45-5.47,5.47-5.47h4.18v-14.84c0-3.46,2.88-6.34,6.34-6.34c3.46,0,6.2,2.88,6.2,6.34v14.84h13.4
				c3.03,0,5.47,2.45,5.47,5.47c0,2.88-2.45,5.33-5.47,5.33h-13.4v30.69c0.15,14.27,2.45,19.74,13.97,19.74h2.88
				c3.17,0,5.76,2.59,5.76,5.76C1066.69,333.54,1064.09,336.14,1060.92,336.14z"/>
			<path d="M1084.55,246.95c-4.03,0-7.35-3.31-7.35-7.34c0-4.04,3.32-7.35,7.35-7.35c4.18,0,7.49,3.31,7.49,7.35
				C1092.04,243.64,1088.72,246.95,1084.55,246.95z M1084.55,337c-3.46,0-6.2-2.74-6.2-6.34v-61.81c0-3.46,2.73-6.33,6.2-6.33
				c3.6,0,6.34,2.88,6.34,6.33v61.81C1090.88,334.26,1088.15,337,1084.55,337z"/>
			<path d="M1159.61,337c-2.02,0-4.03-1.15-5.33-3.75c-5.48-11.38-12.68-22.76-20.03-32.85l-10.38,10.23v20.03
				c0,3.6-2.74,6.34-6.34,6.34c-3.46,0-6.2-2.74-6.2-6.34v-92.64c0-3.46,2.73-6.19,6.2-6.19c3.6,0,6.34,2.73,6.34,6.19v57.49
				l30.98-31.41c2.16-2.16,5.76-2.16,7.92,0.15c2.3,2.16,2.16,5.76,0,7.92l-19.74,19.73c8.21,11.24,16.28,23.77,22.47,36.59
				C1167.67,333.25,1163.64,337,1159.61,337z"/>
		</g>
	</g>
</g>
   
<linearGradient id="cloudy" gradientTransform="rotate(90)">
	<stop  offset="0" stop-color="rgba(170,73,36,.15)"/>
   <stop  offset="1" stop-color="rgba(255,255,255,.4)"/>
</linearGradient>
   
<g id="back">
	
		<animateTransform  attributeName="transform" begin="0s" calcMode="linear" dur="100s" fill="freeze" id="startloop_back" repeatCount="1" restart="always" type="translate" values="0,0; -5000,0">
		</animateTransform>
	
		<animateTransform  attributeName="transform" begin="startloop_back.end" calcMode="linear" dur="120s" fill="freeze" repeatCount="indefinite" restart="always" type="translate" values="1000,0; -5000,0">
		</animateTransform>
	
	<path id="back26" fill="url(#cloudy)" d="M6784.11,489.61
		c-1.87,0-3.68,0.28-5.37,0.78c-6.17-7.8-16.24-12.88-27.62-12.88c-11.03,0-20.84,4.77-27.04,12.17c-3.42-3.91-8.69-6.42-14.61-6.42
		c-2.17,0-4.26,0.36-6.2,0.98c-3.26-12.19-15.35-21.25-29.79-21.25c-2.65,0-5.23,0.31-7.69,0.88c-9.28-5.53-20.37-8.75-32.3-8.75
		c-2.03,0-4.04,0.1-6.02,0.28c-5.99-16.16-22.81-27.8-42.63-27.8c-15.07,0-28.39,6.73-36.56,17.05c-1.55-0.26-3.14-0.41-4.77-0.41
		c-7.47,0-14.18,2.94-18.82,7.61c-6.33-4.39-14.25-7-22.83-7c-14.42,0-26.94,7.36-33.27,18.16c-12.5,1.86-22.05,11.7-22.05,23.58
		c0,4.54,1.4,8.79,3.82,12.4c-5.98,2.19-10.39,7.16-11.29,13.16c-2.83-1.07-5.93-1.66-9.19-1.66c-3.85,0-7.47,0.84-10.69,2.3
		c0.01-0.26,0.02-0.52,0.02-0.79c0-16.04-14.33-29.04-31.99-29.04c-8.5,0-16.23,3.02-21.96,7.93c-3.82-1.4-7.99-2.18-12.37-2.18
		c-12.49,0-23.36,6.3-28.96,15.6c-6.33-4.29-14.18-6.82-22.69-6.82c-9.77,0-18.67,3.35-25.4,8.84
		c-2.71-17.15-18.95-30.33-38.59-30.33c-18.69,0-34.29,11.94-38.1,27.86c-3.56,0.7-6.69,2.44-8.97,4.87
		c-5.16-4.53-12.18-7.32-19.92-7.32c-12.03,0-22.32,6.73-26.57,16.28c-3.8-2.43-8.42-3.87-13.42-3.87c-5.75,0-11,1.9-15.07,5.03
		c-2.41-8.12-10.55-14.1-20.25-14.1c-6.88,0-12.97,3.01-16.8,7.66c-4.72-4.35-11.27-7.05-18.53-7.05
		c-12.54,0-23.01,8.06-25.45,18.79c-2.39-2.08-5.63-3.36-9.21-3.36c-7.36,0-13.33,5.42-13.33,12.1s5.97,12.1,13.33,12.1
		c0.7,0,1.38-0.06,2.05-0.16c1.72,4.49,6.42,7.72,11.95,7.72c3.18,0,6.08-1.07,8.3-2.84c3.68,1.81,7.89,2.84,12.36,2.84
		c5.49,0,10.58-1.55,14.77-4.19c-0.07,0.68-0.11,1.37-0.11,2.07c0,12.36,11.04,22.39,24.66,22.39c11.84,0,21.73-7.58,24.11-17.68
		c2.27,0.67,4.69,1.05,7.21,1.05c8.45,0,15.82-4.09,19.91-10.18c5.17,4.61,12.26,7.46,20.08,7.46c4.29,0,8.35-0.86,12-2.39
		c1.92,10.62,12.08,18.73,24.33,18.73c9.63,0,17.98-5.02,22.03-12.34c1.19,0.15,2.4,0.24,3.63,0.24c3.14,0,6.14-0.51,8.93-1.45
		c4.03,6.63,11.8,11.13,20.73,11.13c6.98,0,13.24-2.76,17.57-7.13c6.16,3.92,13.66,6.22,21.75,6.22c7.93,0,15.29-2.21,21.39-5.98
		c1.91,9.26,10.85,16.27,21.6,16.27c2.57,0,5.03-0.42,7.33-1.16c7.7,8.64,19.46,14.17,32.66,14.17c15.56,0,29.13-7.69,36.38-19.1
		c5.26,3.63,11.82,5.79,18.93,5.79c17.3,0,31.33-12.73,31.33-28.44c0-0.34-0.01-0.68-0.03-1.02c6.31,4.07,14.02,6.47,22.36,6.47
		c3.73,0,7.34-0.49,10.75-1.38c-0.05,0.66-0.08,1.32-0.08,1.99c0,16.38,14.62,29.65,32.66,29.65c14.02,0,25.97-8.02,30.6-19.28
		c4.03,6.62,11.8,11.11,20.72,11.11c11.5,0,21.08-7.46,23.21-17.33c6.92,2.58,14.49,4.02,22.44,4.02c14.66,0,28.06-4.86,38.38-12.9
		c6.17,6.77,15.5,11.09,25.94,11.09c17.27,0,31.5-11.82,33.43-27.02c5.59,3.67,12.46,5.84,19.89,5.84c13.83,0,25.72-7.5,31.03-18.26
		c0.65,0.06,1.3,0.11,1.96,0.11c9.57,0,17.33-7.04,17.33-15.73C6801.44,496.65,6793.68,489.61,6784.11,489.61z"/>

	<path id="back24" fill="url(#cloudy)" d="M6352.91,490.16
		c8.35-1.03,14.37-3.92,14.37-7.33c0-4.27-9.42-7.73-21.02-7.73c-2.1,0-4.11,0.12-6.02,0.33c-6.57-3.69-17.89-6.12-30.77-6.12
		c-4.72,0-9.19,0.34-13.34,0.93c-6.33-14.41-40.3-25.41-81.27-25.41c-45.47,0-82.35,13.56-82.35,30.28c0,1.87,0.49,3.69,1.37,5.46
		c-4.95,0.66-9.65,1.51-14.05,2.51c-10.59-4.86-26.86-7.98-45.12-7.98c-1.22,0-2.43,0.02-3.64,0.05
		c-12.64-10.28-40.76-17.44-73.45-17.44c-4.16,0-8.26,0.12-12.24,0.34c-9.56-6.35-27.94-10.65-49.08-10.65
		c-14.48,0-27.67,2.02-37.63,5.33c-9.29-6.01-24.64-10.58-43-12.58c1.16-1.59,1.78-3.27,1.78-4.99c0-10.68-23.53-19.33-52.55-19.33
		s-52.57,8.65-52.57,19.33c0,1.56,0.52,3.08,1.48,4.53c-4.84,0.08-9.49,0.42-13.86,0.99c-1.27-5.26-13.27-9.38-27.91-9.38h-0.08
		c-0.91-5.39-13.05-9.67-27.94-9.67c-15.48,0-28.04,4.62-28.04,10.31s12.56,10.31,28.04,10.31c0.03,0,0.06,0,0.1,0
		c0.87,5.22,12.32,9.38,26.58,9.64c-1.38,1.63-2.14,3.38-2.14,5.18c0,9.61,21.18,17.4,47.31,17.4c2.94,0,5.81-0.1,8.61-0.3
		c7.49,8.82,26.96,15.71,51.39,18.08c-1.41,1.93-2.19,3.96-2.19,6.05c0,12.81,28.25,23.19,63.08,23.19c3.06,0,6.06-0.08,9-0.24
		c8.54,14.5,43.61,25.37,85.59,25.37c46.2,0,84.02-13.15,87.34-29.83c5.1,0.54,10.46,0.84,16.04,0.84c5.75,0,11.29-0.32,16.51-0.89
		c11.29,9.62,37.3,16.35,67.57,16.35c40.65,0,73.59-12.12,73.59-27.06c0-0.44-0.03-0.89-0.1-1.33c4.53-0.36,8.94-0.86,13.15-1.48
		c5.35,5.04,18.66,8.61,34.25,8.61c8.18,0,15.69-0.99,21.8-2.65c6.73,3.18,17.21,5.22,29.01,5.22c20.32,0,36.79-6.06,36.79-13.53
		C6367.28,496.5,6361.64,492.63,6352.91,490.16z"/>

	<path id="back20" fill="url(#cloudy)" d="M5294.74,555.11
		c0.7,0,1.38-0.03,2.06-0.1c3.19,9.5,12.92,16.41,24.42,16.41c11.42,0,21.08-6.81,24.34-16.2c6.07,6.24,14.94,10.19,24.83,10.19
		c5.17,0,10.06-1.08,14.41-2.99c3.47,10.66,14.33,18.44,27.2,18.44c15.67,0,28.37-11.53,28.37-25.76c0-2.99-0.57-5.85-1.6-8.53
		c1.69,0.51,3.5,0.8,5.38,0.8c5.32,0,10.06-2.22,13.18-5.68c0.67-0.1,1.32-0.2,1.97-0.32c2.16,2.6,5.36,4.42,9.06,4.96
		c2.03,7.49,9.46,13.06,18.34,13.06c6.75,0,12.66-3.22,16.01-8.05c3.56,7.75,11.99,13.2,21.82,13.2c9.73,0,18.08-5.34,21.7-12.97
		c0.64,0.05,1.28,0.09,1.93,0.09c2.79,0,5.48-0.39,8.01-1.09c2.08,9.43,11.25,16.54,22.25,16.54c4.4,0,8.49-1.15,11.97-3.12
		c6.05,8.59,16.64,14.28,28.69,14.28c7.25,0,13.96-2.06,19.48-5.57c4.14,1.95,8.74,3.24,13.6,3.68
		c8.27,11.47,22.55,19.06,38.79,19.06c18.05,0,33.67-9.37,41.32-23.04c4.18,24.71,27.7,43.64,56.09,43.64
		c31.05,0,56.27-22.65,56.72-50.75c0.95,0.06,1.9,0.1,2.86,0.1c24.02,0,43.5-17.68,43.5-39.49c0-0.24-0.01-0.48-0.02-0.72
		c5.53-3.24,9.4-8.58,10.23-14.79c0.38,0.02,0.75,0.05,1.13,0.05c10.44,0,18.91-7.69,18.91-17.17s-8.47-17.17-18.91-17.17
		c-8.39,0-15.5,4.96-17.97,11.83c-1.81-0.42-3.71-0.67-5.67-0.67c-4.44,0-8.57,1.17-12.06,3.17c-5.78-2.58-12.28-4.03-19.15-4.03
		c-9.11,0-17.57,2.55-24.55,6.89c-8.5-13.35-24.39-22.34-42.59-22.34c-14.52,0-27.56,5.71-36.56,14.79
		c-3.14-0.69-6.41-1.06-9.78-1.06c-2.1,0-4.17,0.14-6.19,0.42c-7.05-6.61-16.92-10.72-27.85-10.72c-20.92,0-37.97,15.05-38.74,33.87
		c-1.86-0.26-3.77-0.39-5.71-0.39c-8.91,0-17.1,2.8-23.56,7.48c-2.06-5.35-7.66-9.2-14.27-9.2c-4.65,0-8.81,1.91-11.58,4.91
		c-3.94-5.04-10.41-8.34-17.73-8.34c-7.84,0-14.68,3.77-18.51,9.41c-4.66-5.81-12.01-9.7-20.4-10.18c2.43-2.56,3.92-5.88,3.92-9.53
		c0-8.06-7.2-14.59-16.08-14.59c-4.54,0-8.63,1.71-11.56,4.46c-5.55-7.85-15.24-13.05-26.27-13.05c-4.31,0-8.41,0.79-12.14,2.22
		c-8.83-10.23-22.55-16.82-37.98-16.82c-20.32,0-37.7,11.42-44.8,27.57c-0.82-0.06-1.65-0.1-2.49-0.1
		c-15.49,0-28.42,9.95-31.47,23.19c-0.23,0-0.46-0.01-0.68-0.01c-6.92,0-13.34,1.93-18.65,5.22c-4.45-5.75-11.79-9.52-20.12-9.52
		c-13.43,0-24.34,9.79-24.56,21.93c-3.39-2.44-7.66-3.9-12.32-3.9c-10.97,0-19.86,8.07-19.86,18.03
		C5274.88,547.04,5283.77,555.11,5294.74,555.11z"/>

	<path id="back18" fill="url(#cloudy)" d="M5413.91,541.01
		c0.27-1.16,0.41-2.36,0.41-3.6c0-9.65-8.61-17.47-19.24-17.47c-4.3,0-8.26,1.29-11.46,3.46c-6.13-8.48-16.69-14.09-28.7-14.09
		c-2.2,0-4.36,0.2-6.44,0.56c-5.19-6.33-13.48-10.43-22.84-10.43c-15.71,0-28.44,11.56-28.44,25.82c0,3.87,0.94,7.53,2.62,10.83
		c-2.15-0.62-4.43-0.95-6.8-0.95c-12.48,0-22.59,9.18-22.59,20.5c0,11.33,10.11,20.51,22.59,20.51c9.57,0,17.73-5.41,21.02-13.04
		c1.81,0.57,3.73,0.89,5.75,0.89c3.59,0,6.92-0.98,9.7-2.65c6.28,6.3,15.35,10.25,25.44,10.25c14.04,0,26.1-7.66,31.41-18.63
		c2.63,1.22,5.59,1.92,8.74,1.92c0.42,0,0.82-0.03,1.23-0.05c2.11,2.79,5.64,4.61,9.65,4.61c6.47,0,11.71-4.76,11.71-10.63
		C5417.67,545.72,5416.22,542.95,5413.91,541.01z"/>

	<path id="back17" fill="url(#cloudy)" d="M5297.23,522.79
		c0.27-1.16,0.41-2.36,0.41-3.6c0-9.65-8.61-17.47-19.24-17.47c-4.3,0-8.26,1.29-11.46,3.46c-6.13-8.48-16.69-14.09-28.7-14.09
		c-2.2,0-4.36,0.2-6.44,0.56c-5.19-6.33-13.48-10.43-22.84-10.43c-15.71,0-28.44,11.56-28.44,25.82c0,3.87,0.94,7.53,2.62,10.83
		c-2.15-0.62-4.43-0.95-6.8-0.95c-12.48,0-22.59,9.18-22.59,20.5c0,11.33,10.11,20.51,22.59,20.51c9.57,0,17.73-5.41,21.02-13.04
		c1.81,0.57,3.73,0.89,5.75,0.89c3.59,0,6.92-0.98,9.7-2.65c6.28,6.3,15.35,10.25,25.44,10.25c14.04,0,26.1-7.66,31.41-18.63
		c2.63,1.22,5.59,1.92,8.74,1.92c0.42,0,0.82-0.03,1.23-0.05c2.11,2.79,5.64,4.61,9.65,4.61c6.47,0,11.71-4.76,11.71-10.63
		C5300.99,527.5,5299.54,524.73,5297.23,522.79z"/>

	<path id="back16" fill="url(#cloudy)" d="M5056.05,439.39
		c3.41,0,6.58-0.86,9.32-2.34c3.26,3.04,7.31,5.37,11.85,6.72c3.37,13.21,16.4,23.06,31.97,23.06c14.93,0,27.51-9.04,31.5-21.42
		c5.22,2.5,11.16,3.92,17.48,3.92c0.99,0,1.97-0.05,2.95-0.12c2.2,13.45,14.98,23.77,30.4,23.77c9.49,0,17.98-3.91,23.62-10.05
		c2.8,11.43,14.01,19.98,27.44,19.98c15.54,0,28.14-11.44,28.14-25.54c0-3.7-0.88-7.21-2.45-10.38c1.81,0.29,3.67,0.45,5.57,0.45
		c6.05,0,11.7-1.54,16.52-4.2c3.05,10.84,13.84,18.86,26.73,18.86c13.86,0,25.31-9.29,27.28-21.37c8.38-0.79,14.92-7.23,14.92-15.05
		c0-8.36-7.47-15.14-16.67-15.14c-4.72,0-8.97,1.78-12,4.64c-0.84-0.43-1.7-0.82-2.58-1.17c1-2.08,1.56-4.37,1.56-6.79
		c0-9.4-8.4-17.03-18.76-17.03c-6.35,0-11.95,2.87-15.35,7.26c-5.68-4.8-13.28-7.73-21.65-7.73c-4.78,0-9.31,0.96-13.38,2.68
		c-6.34-14.85-22.21-25.38-40.81-25.38c-16.79,0-31.37,8.59-38.71,21.19c-6.31-4.39-14.21-7-22.77-7c-8.37,0-16.09,2.49-22.34,6.7
		c-3.43-2.13-7.58-3.39-12.05-3.39c-9.25,0-17.11,5.35-20.08,12.82c-4.86-3.3-10.9-5.25-17.44-5.25c-11.42,0-21.29,5.96-26.09,14.63
		c-1.33-0.28-2.71-0.45-4.13-0.45c-10.07,0-18.24,7.41-18.24,16.56S5045.98,439.39,5056.05,439.39z"/>

	<path id="back15" fill="url(#cloudy)" d="M4662.15,489.96
		c6.56,0,12.27-3.31,15.22-8.18c4.64,2.74,10.17,4.33,16.12,4.33c3.63,0,7.11-0.59,10.33-1.68c5.65,8.82,16.16,14.75,28.21,14.75
		c18.01,0,32.6-13.25,32.6-29.6c0-0.2-0.01-0.41-0.01-0.62c3.72,1.63,7.89,2.54,12.3,2.54c12.27,0,22.72-7.08,26.68-16.98
		c8.18,10.72,21.81,17.75,37.26,17.75c18.82,0,34.96-10.42,41.81-25.26c2.44,0.94,5.07,1.53,7.83,1.72
		c-0.33,1.39-0.52,2.83-0.52,4.31c0,11.25,10.05,20.37,22.44,20.37c2.45,0,4.8-0.37,7-1.02c4.61,7.92,13.79,13.32,24.34,13.32
		c15.2,0,27.53-11.19,27.53-24.99c0-1.45-0.15-2.87-0.4-4.25c3.12-0.05,6.11-0.63,8.83-1.66c3.52,2.49,7.94,3.99,12.74,3.99
		c11.46,0,20.75-8.43,20.75-18.84s-9.29-18.84-20.75-18.84c-0.96,0-1.91,0.08-2.84,0.2c-3.65-4.35-9.05-7.41-15.25-8.34
		c-3.38-15.31-18.27-26.85-36.12-26.85c-4.79,0-9.36,0.84-13.55,2.35c-6.42-8.38-17.11-13.88-29.22-13.88
		c-4.18,0-8.18,0.66-11.91,1.86c-4.76-17.19-21.89-29.92-42.3-29.92c-23.44,0-42.55,16.78-43.57,37.83
		c-1.13-0.1-2.27-0.15-3.44-0.15c-15.94,0-29.43,9.52-33.95,22.64c-2.38-0.71-4.91-1.11-7.55-1.11c-9.62,0-17.89,5.12-21.77,12.5
		c-8.49,4.35-14.22,12.62-14.22,22.1c0,0.79,0.04,1.57,0.12,2.34c-5.42-6.34-13.89-10.42-23.41-10.42
		c-16.12,0-29.22,11.68-29.63,26.22c-0.56-0.05-1.13-0.08-1.71-0.08c-9.59,0-17.36,7.06-17.36,15.76
		C4644.79,482.9,4652.56,489.96,4662.15,489.96z"/>

	<path id="back14" fill="url(#cloudy)" d="M4688.67,586.37
		c1.25,7.64,8.49,13.51,17.26,13.51c4.43,0,8.47-1.51,11.55-3.98c4.52,2.53,9.84,3.98,15.53,3.98c4,0,7.81-0.72,11.29-2.02
		c4.6,13.13,18.14,22.64,34.12,22.64c6.31,0,12.24-1.49,17.39-4.09c8.35,7.43,19.78,12.02,32.4,12.02
		c13.85,0,26.27-5.53,34.75-14.28c3.72,19.37,22.32,34.1,44.73,34.1c4.78,0,9.39-0.68,13.73-1.92c8.47,8.49,20.71,13.82,34.31,13.82
		c25.29,0,45.83-18.41,46.27-41.28c3.12,0.55,6.33,0.84,9.63,0.84c14.76,0,28.04-5.73,37.3-14.88c5.77,2.91,12.41,4.57,19.47,4.57
		c1.58,0,3.14-0.09,4.67-0.25c-0.19,1.38-0.3,2.79-0.3,4.22c0,18.39,16.42,33.3,36.69,33.3c19.82,0,35.96-14.28,36.65-32.13
		c13.14-2.05,23.41-11.71,25.11-23.81c1.5,0.28,3.04,0.43,4.62,0.43c12.54,0,22.71-9.23,22.71-20.61
		c0-11.39-10.17-20.62-22.71-20.62c-7.05,0-13.36,2.93-17.52,7.51c0.03-0.65,0.05-1.3,0.05-1.96c0-20.14-17.99-36.48-40.18-36.48
		c-15.55,0-29.03,8.02-35.7,19.75c-4.38-1.49-9.13-2.31-14.08-2.31c-4.08,0-8.01,0.56-11.73,1.59
		c-2.55-16.58-18.22-29.34-37.19-29.34c-12.04,0-22.75,5.15-29.63,13.15c-7.63-4.31-16.63-6.81-26.27-6.81
		c-12.69,0-24.27,4.32-33.07,11.42c-9.12-6.64-20.7-10.63-33.31-10.63c-23.17,0-42.87,13.43-50.21,32.17
		c-5.74-2.32-12.1-3.62-18.79-3.62c-13.78,0-26.15,5.48-34.63,14.15c-4.6-1.95-9.73-3.05-15.15-3.05c-7.01,0-13.55,1.84-19.08,5
		c-4.95-8.63-14.88-14.52-26.34-14.52c-14.67,0-26.84,9.65-29.25,22.34c-1.94,0.22-3.77,0.73-5.46,1.47
		c-2.08-2.42-5.32-3.99-8.96-3.99c-6.27,0-11.36,4.61-11.36,10.31C4677.98,581.59,4682.71,586.06,4688.67,586.37z"/>
	
	<path id="back13" fill="url(#cloudy)" d="M4679.89,321.42
		c-2.92,0-5.64,0.74-7.97,2c-2.79-2.6-6.26-4.59-10.15-5.75c-2.88-11.31-14.04-19.74-27.37-19.74c-12.78,0-23.55,7.74-26.97,18.34
		c-4.47-2.14-9.56-3.36-14.96-3.36c-0.85,0-1.69,0.04-2.52,0.1c-1.89-11.51-12.82-20.35-26.03-20.35c-8.13,0-15.39,3.35-20.22,8.6
		c-2.4-9.78-12-17.1-23.5-17.1c-13.3,0-24.09,9.79-24.09,21.87c0,3.17,0.76,6.17,2.09,8.89c-1.55-0.25-3.14-0.38-4.77-0.38
		c-5.18,0-10.02,1.32-14.14,3.6c-2.61-9.28-11.85-16.15-22.88-16.15c-11.87,0-21.67,7.95-23.36,18.29
		c-7.18,0.68-12.77,6.19-12.77,12.89c0,7.16,6.39,12.96,14.27,12.96c4.04,0,7.68-1.53,10.28-3.98c0.72,0.36,1.45,0.7,2.21,1
		c-0.85,1.78-1.34,3.74-1.34,5.81c0,8.05,7.19,14.58,16.06,14.58c5.44,0,10.23-2.46,13.14-6.21c4.86,4.11,11.37,6.62,18.53,6.62
		c4.09,0,7.97-0.83,11.45-2.29c5.43,12.71,19.02,21.73,34.94,21.73c14.37,0,26.85-7.35,33.14-18.14c5.41,3.76,12.16,5.99,19.5,5.99
		c7.17,0,13.78-2.13,19.12-5.73c2.94,1.83,6.49,2.9,10.32,2.9c7.92,0,14.64-4.58,17.19-10.97c4.17,2.82,9.33,4.49,14.93,4.49
		c9.77,0,18.23-5.1,22.33-12.53c1.14,0.24,2.32,0.38,3.54,0.38c8.62,0,15.61-6.35,15.61-14.17
		C4695.51,327.77,4688.51,321.42,4679.89,321.42z"/>

	<path id="back12" fill="url(#cloudy)" d="M4560.5,513.49
		c-0.59,0-1.16,0.02-1.74,0.08c-2.69-8-10.88-13.82-20.57-13.82c-9.62,0-17.76,5.74-20.51,13.65c-5.11-5.26-12.58-8.58-20.91-8.58
		c-4.35,0-8.47,0.91-12.14,2.52c-2.93-8.98-12.07-15.54-22.91-15.54c-13.2,0-23.89,9.71-23.89,21.7c0,2.51,0.48,4.93,1.34,7.18
		c-1.43-0.43-2.95-0.67-4.53-0.67c-4.48,0-8.47,1.87-11.1,4.79c-0.56,0.08-1.11,0.17-1.66,0.27c-1.81-2.19-4.52-3.73-7.63-4.18
		c-1.71-6.31-7.97-11-15.45-11c-5.69,0-10.66,2.71-13.48,6.78c-3-6.53-10.1-11.12-18.38-11.12c-8.2,0-15.23,4.5-18.28,10.92
		c-0.54-0.04-1.08-0.08-1.63-0.08c-2.35,0-4.61,0.32-6.75,0.92c-1.75-7.94-9.47-13.93-18.74-13.93c-3.71,0-7.15,0.97-10.08,2.63
		c-5.09-7.23-14.01-12.03-24.17-12.03c-6.11,0-11.76,1.74-16.41,4.69c-3.49-1.65-7.36-2.73-11.46-3.1
		c-6.97-9.66-18.99-16.05-32.67-16.05c-15.2,0-28.36,7.89-34.8,19.4c-3.51-20.82-23.33-36.76-47.24-36.76
		c-26.15,0-47.39,19.07-47.77,42.74c-0.8-0.05-1.6-0.08-2.41-0.08c-20.23,0-36.64,14.89-36.64,33.26c0,0.21,0.01,0.41,0.01,0.61
		c-4.65,2.73-7.91,7.23-8.62,12.45c-0.32-0.02-0.63-0.04-0.95-0.04c-8.79,0-15.93,6.47-15.93,14.46c0,7.99,7.13,14.46,15.93,14.46
		c7.07,0,13.05-4.18,15.14-9.97c1.53,0.36,3.12,0.57,4.77,0.57c3.74,0,7.21-0.99,10.16-2.67c4.87,2.17,10.34,3.4,16.13,3.4
		c7.67,0,14.79-2.15,20.68-5.8c7.16,11.25,20.54,18.82,35.87,18.82c12.23,0,23.21-4.81,30.8-12.46c2.64,0.58,5.4,0.89,8.24,0.89
		c1.77,0,3.52-0.12,5.22-0.35c5.94,5.57,14.25,9.03,23.46,9.03c17.62,0,31.98-12.67,32.63-28.53c1.57,0.21,3.17,0.33,4.81,0.33
		c7.51,0,14.4-2.36,19.84-6.3c1.74,4.51,6.46,7.75,12.02,7.75c3.92,0,7.42-1.61,9.75-4.13c3.32,4.24,8.77,7.02,14.94,7.02
		c6.6,0,12.36-3.17,15.59-7.92c3.93,4.89,10.12,8.17,17.18,8.58c-2.05,2.15-3.3,4.96-3.3,8.02c0,6.79,6.06,12.29,13.54,12.29
		c3.82,0,7.27-1.45,9.73-3.76c4.67,6.61,12.84,10.99,22.13,10.99c3.63,0,7.08-0.67,10.23-1.87c7.44,8.62,19,14.17,31.99,14.17
		c17.12,0,31.75-9.62,37.73-23.22c0.7,0.05,1.39,0.08,2.1,0.08c13.05,0,23.94-8.38,26.51-19.53c0.19,0,0.38,0.01,0.58,0.01
		c5.83,0,11.23-1.62,15.71-4.4c3.75,4.84,9.93,8.02,16.95,8.02c11.31,0,20.5-8.24,20.69-18.47c2.85,2.05,6.45,3.29,10.38,3.29
		c9.24,0,16.73-6.8,16.73-15.19C4577.23,520.29,4569.74,513.49,4560.5,513.49z"/>

	<path id="back11" fill="url(#cloudy)" d="M4147.6,473.95
		c0-9.06-8.09-16.41-18.08-16.41c-1.79,0-3.51,0.24-5.14,0.68c-3.26-5.67-9.8-9.55-17.33-9.55c-2.43,0-4.76,0.41-6.91,1.14
		c-3.24-1.85-7.06-2.92-11.17-2.92c-2.72,0-5.31,0.47-7.7,1.33c-1.57-6.59-8.03-11.53-15.76-11.53c-8.32,0-15.17,5.73-16.03,13.07
		c-2.44-0.65-5.01-1.02-7.66-1.08c-4.73-7.43-13.57-12.44-23.7-12.44c-15.11,0-27.36,11.12-27.36,24.84c0,2.27,0.34,4.47,0.97,6.57
		c-3.1,0.41-6.07,1.16-8.88,2.22c-2.23-2.64-5.73-4.35-9.69-4.35c-6.09,0-11.13,4.05-12.05,9.35c-1.14-0.31-2.34-0.47-3.58-0.47
		c-7.02,0-12.71,5.17-12.71,11.53c0,6.37,5.69,11.53,12.71,11.53c0.92,0,1.82-0.09,2.69-0.26c-0.16,1.25-0.24,2.52-0.24,3.81
		c0,18.62,16.62,33.71,37.13,33.71c11.97,0,22.61-5.15,29.4-13.13c3.18,7.18,10.91,12.24,19.95,12.24c10.18,0,18.7-6.42,20.93-15.05
		c3.12,0.84,6.43,1.29,9.86,1.29c10.16,0,19.29-3.96,25.64-10.28c3.74,3.59,9.04,5.84,14.92,5.84c11.33,0,20.52-8.34,20.52-18.63
		c0-2.82-0.69-5.49-1.93-7.88C4142.97,486.68,4147.6,480.8,4147.6,473.95z"/>

	<path id="back10" fill="url(#cloudy)" d="M4082.15,526.85
		c-0.47-2.86-3.18-5.06-6.46-5.06c-1.66,0-3.17,0.57-4.32,1.49c-1.69-0.94-3.68-1.49-5.81-1.49c-1.5,0-2.92,0.27-4.23,0.76
		c-1.72-4.91-6.79-8.47-12.77-8.47c-2.36,0-4.58,0.56-6.51,1.53c-3.12-2.78-7.4-4.5-12.12-4.5c-5.18,0-9.83,2.07-13,5.34
		c-1.4-7.25-8.35-12.76-16.74-12.76c-1.79,0-3.51,0.25-5.14,0.72c-3.17-3.17-7.75-5.17-12.83-5.17c-9.46,0-17.15,6.89-17.31,15.45
		c-1.17-0.21-2.37-0.31-3.6-0.31c-5.52,0-10.49,2.15-13.95,5.57c-2.16-1.09-4.64-1.71-7.29-1.71c-0.59,0-1.17,0.04-1.75,0.1
		c0.07-0.52,0.11-1.04,0.11-1.58c0-6.88-6.14-12.46-13.72-12.46c-7.42,0-13.46,5.34-13.71,12.02c-4.92,0.77-8.76,4.38-9.39,8.91
		c-0.56-0.1-1.14-0.16-1.73-0.16c-4.69,0-8.5,3.45-8.5,7.71s3.8,7.71,8.5,7.71c2.64,0,5-1.09,6.56-2.81
		c-0.01,0.24-0.02,0.49-0.02,0.73c0,7.54,6.73,13.65,15.03,13.65c5.82,0,10.86-3,13.36-7.39c1.64,0.56,3.41,0.86,5.27,0.86
		c1.53,0,3-0.21,4.39-0.59c0.96,6.2,6.82,10.98,13.91,10.98c4.5,0,8.51-1.93,11.08-4.92c2.85,1.61,6.22,2.55,9.83,2.55
		c4.75,0,9.08-1.62,12.37-4.27c3.41,2.48,7.74,3.98,12.46,3.98c8.67,0,16.04-5.02,18.79-12.03c2.15,0.87,4.53,1.35,7.03,1.35
		c5.16,0,9.78-2.05,12.96-5.29c1.72,0.73,3.64,1.14,5.67,1.14c2.62,0,5.07-0.69,7.14-1.87c1.85,3.23,5.57,5.43,9.86,5.43
		c5.48,0,10.04-3.61,10.94-8.36c0.72-0.08,1.41-0.27,2.04-0.55c0.78,0.91,1.99,1.49,3.35,1.49c2.35,0,4.25-1.73,4.25-3.86
		C4086.15,528.64,4084.38,526.96,4082.15,526.85z"/>

	<path id="back9" fill="url(#cloudy)" d="M3967.18,458.78
		c-1.48,0-2.89,0.27-4.18,0.74c-3.2-3.46-7.96-5.68-13.3-5.77c-0.4-4.24-4.3-7.56-9.07-7.56c-2.9,0-5.48,1.23-7.15,3.15
		c-3.89-2.87-8.84-4.6-14.25-4.6c-4.7,0-9.06,1.3-12.67,3.53c-4.79-4.82-11.72-7.85-19.42-7.85c-4.38,0-8.5,0.98-12.13,2.71
		c-2.44-10.57-11.71-18.87-23.42-20.92c0.19-1.1,0.29-2.23,0.29-3.37c0-12.12-10.82-21.94-24.17-21.94c-3.74,0-7.28,0.77-10.44,2.14
		c0.6-1.57,0.93-3.26,0.93-5.02c0-8.54-7.63-15.47-17.04-15.47c-7.38,0-13.66,4.26-16.03,10.22c-0.98-0.1-1.98-0.15-2.99-0.15
		c-14.91,0-27.07,10.68-27.71,24.08c-13.73,1.96-24.38,12.36-25.32,25.16c-6.84,2.94-11.57,9.26-11.57,16.59c0,0.04,0,0.09,0,0.13
		c-3.18-3.79-8.21-6.25-13.87-6.25c-9.63,0-17.44,7.09-17.44,15.83s7.81,15.83,17.44,15.83c2.04,0,4-0.32,5.82-0.91
		c2.87,6.24,9.65,10.62,17.56,10.62c3.43,0,6.64-0.83,9.42-2.27c2.06,13.08,14.44,23.13,29.41,23.13c2.9,0,5.69-0.38,8.34-1.08
		c5.37,6.14,13.66,10.08,22.96,10.08c12.18,0,22.61-6.73,27.05-16.32c3.26,1.25,6.84,1.93,10.6,1.93c7.37,0,14.06-2.65,18.98-6.96
		c4.88,3.88,11.27,6.25,18.27,6.25c13.02,0,23.94-8.15,26.93-19.14c2.28-1.06,4.37-2.41,6.2-4c3.85,2.77,8.72,4.44,14.02,4.44
		c6.23,0,11.87-2.29,15.96-5.99c3.26,3.86,8.38,6.35,14.16,6.35c6.34,0,11.9-3,15.06-7.53c0.88,0.21,1.81,0.33,2.77,0.33
		c6.13,0,11.1-4.51,11.1-10.07C3978.27,463.29,3973.3,458.78,3967.18,458.78z"/>

	<path id="back8" fill="url(#cloudy)" d="M3477.08,487.11
		c-2.52,0-4.81,0.87-6.54,2.3c-1.18-0.88-2.53-1.56-3.99-2.02c0-0.09,0.01-0.18,0.01-0.28c0-3.58-3.2-6.48-7.14-6.48
		s-7.14,2.9-7.14,6.48c0,1.17,0.35,2.27,0.95,3.21c-0.42,0.39-0.81,0.82-1.16,1.26c-2.21-1.63-4.87-2.77-7.8-3.22
		c-3.33-7.53-11.45-12.86-20.93-12.86c-11.57,0-21.09,7.91-22.4,18.09c-1.66-0.66-3.49-1.03-5.42-1.03c-5.66,0-10.5,3.15-12.53,7.63
		c-1.21-0.46-2.52-0.74-3.9-0.79c-1.62-9.48-10.65-16.73-21.54-16.73c-2.24,0-4.39,0.31-6.43,0.88
		c-5.53-8.3-15.57-13.84-27.03-13.84c-6.69,0-12.9,1.9-18.01,5.12c-2.26-0.67-4.67-1.03-7.18-1.03c-12.87,0-23.3,9.47-23.3,21.16
		c0,2.65,0.54,5.19,1.52,7.53c-0.88,0.73-1.68,1.54-2.4,2.4c-5.53,1.2-9.87,5.17-11.15,10.2h-0.01c-6.23,0-11.28,4.58-11.28,10.24
		c0,5.65,5.05,10.24,11.28,10.24c3.47,0,6.58-1.43,8.65-3.67c0.6,0.16,1.23,0.26,1.88,0.26c0.86,0,1.67-0.15,2.42-0.43
		c0.56,0.06,1.14,0.09,1.72,0.09c0.93,0,1.84-0.08,2.73-0.23c2.87,1.45,6.16,2.27,9.67,2.27c8,0,14.9-4.28,18.07-10.46
		c4.55,2.31,9.8,3.63,15.39,3.63c8.43,0,16.07-3,21.74-7.88c3.39,1.96,7.4,3.11,11.72,3.11c2.26,0,4.44-0.31,6.5-0.89
		c1.54,5.04,6.63,8.74,12.67,8.74c7.27,0,13.16-5.35,13.16-11.94c0-0.77-0.08-1.51-0.23-2.24c1.78,0.78,3.77,1.21,5.87,1.21
		c5.2,0,9.72-2.67,11.98-6.58c1.56,1.4,3.36,2.59,5.32,3.53c0.22,7.75,7.19,13.96,15.78,13.96c6.78,0,12.56-3.88,14.79-9.33
		c6.34-0.68,11.6-4.54,13.8-9.78c1.6,0.65,3.37,1.02,5.24,1.02c4.71,0,8.82-2.31,11.04-5.75c1.12,0.41,2.34,0.64,3.62,0.64
		c5.4,0,9.77-3.97,9.77-8.87C3486.86,491.08,3482.48,487.11,3477.08,487.11z"/>

	<path id="back7" fill="url(#cloudy)" d="M3382.67,518.65
		c-5.43,0-10.36,1.88-14.1,4.95c-2.53-1.89-5.44-3.37-8.6-4.35c0.01-0.2,0.03-0.4,0.03-0.6c0-7.71-6.89-13.96-15.38-13.96
		c-8.5,0-15.38,6.25-15.38,13.96c0,2.52,0.75,4.88,2.04,6.92c-0.9,0.85-1.74,1.76-2.5,2.72c-4.75-3.52-10.49-5.96-16.79-6.95
		c-7.18-16.23-24.65-27.69-45.09-27.69c-24.91,0-45.43,17.03-48.24,38.96c-3.57-1.42-7.52-2.22-11.67-2.22
		c-12.19,0-22.62,6.79-26.97,16.43c-2.6-1-5.43-1.6-8.4-1.71c-3.49-20.41-22.93-36.04-46.4-36.04c-4.81,0-9.46,0.66-13.84,1.88
		c-11.91-17.87-33.53-29.81-58.22-29.81c-14.42,0-27.78,4.08-38.78,11.03c-4.87-1.43-10.06-2.21-15.46-2.21
		c-27.72,0-50.19,20.4-50.19,45.57c0,5.72,1.16,11.18,3.28,16.22c-1.89,1.58-3.62,3.31-5.16,5.17c-11.91,2.58-21.25,11.13-24,21.97
		h-0.03c-13.41,0-24.29,9.87-24.29,22.05s10.87,22.05,24.29,22.05c7.48,0,14.17-3.07,18.62-7.9c1.28,0.36,2.64,0.55,4.05,0.55
		c1.84,0,3.6-0.34,5.2-0.93c1.22,0.13,2.45,0.2,3.7,0.2c2.01,0,3.97-0.17,5.88-0.49c6.17,3.12,13.28,4.9,20.84,4.9
		c17.23,0,32.08-9.23,38.91-22.53c9.81,4.98,21.11,7.83,33.15,7.83c18.15,0,34.62-6.47,46.81-16.98c7.29,4.23,15.95,6.69,25.24,6.69
		c4.87,0,9.57-0.67,13.99-1.92c3.32,10.85,14.28,18.83,27.3,18.83c15.65,0,28.33-11.51,28.33-25.72c0-1.65-0.18-3.26-0.5-4.82
		c3.83,1.68,8.11,2.62,12.65,2.62c11.21,0,20.93-5.75,25.81-14.17c3.37,3.02,7.23,5.59,11.45,7.61
		c0.46,16.68,15.49,30.07,33.98,30.07c14.6,0,27.05-8.36,31.87-20.08c13.65-1.47,24.98-9.79,29.71-21.07
		c3.45,1.4,7.26,2.2,11.29,2.2c10.14,0,19-4.98,23.77-12.4c2.42,0.88,5.04,1.37,7.8,1.37c11.63,0,21.05-8.56,21.05-19.11
		C3403.72,527.21,3394.29,518.65,3382.67,518.65z"/>

	<path id="back6" fill="url(#cloudy)" d="M2524.68,624.58
		c6.34,0,12.1-2.2,16.47-5.78c2.95,2.21,6.35,3.94,10.05,5.08c-0.01,0.23-0.04,0.46-0.04,0.7c0,9.01,8.04,16.31,17.97,16.31
		s17.97-7.3,17.97-16.31c0-2.95-0.87-5.7-2.38-8.09c1.05-0.99,2.03-2.06,2.92-3.18c5.55,4.11,12.26,6.97,19.61,8.11
		c8.38,18.95,28.8,32.34,52.66,32.34c29.1,0,53.07-19.89,56.35-45.51c4.17,1.66,8.78,2.59,13.63,2.59c14.24,0,26.43-7.94,31.51-19.2
		c3.04,1.17,6.34,1.86,9.81,2c4.07,23.84,26.78,42.09,54.19,42.09c5.63,0,11.05-0.77,16.16-2.2c13.92,20.87,39.17,34.82,68,34.82
		c16.84,0,32.45-4.77,45.3-12.89c5.69,1.67,11.76,2.58,18.06,2.58c32.38,0,58.63-23.83,58.63-53.22c0-6.67-1.36-13.06-3.83-18.94
		c2.2-1.85,4.23-3.87,6.03-6.05c13.91-3.01,24.83-13,28.04-25.67h0.03c15.67,0,28.37-11.53,28.37-25.75s-12.7-25.76-28.37-25.76
		c-8.74,0-16.55,3.59-21.75,9.23c-1.5-0.42-3.08-0.65-4.73-0.65c-2.15,0-4.2,0.39-6.08,1.09c-1.42-0.15-2.86-0.23-4.32-0.23
		c-2.35,0-4.64,0.2-6.87,0.57c-7.21-3.64-15.51-5.73-24.34-5.73c-20.13,0-37.48,10.78-45.45,26.32
		c-11.46-5.82-24.65-9.15-38.72-9.15c-21.2,0-40.44,7.55-54.68,19.83c-8.52-4.94-18.63-7.81-29.48-7.81
		c-5.69,0-11.18,0.79-16.34,2.25c-3.88-12.68-16.68-21.99-31.89-21.99c-18.28,0-33.1,13.45-33.1,30.05c0,1.93,0.21,3.81,0.59,5.63
		c-4.47-1.96-9.48-3.05-14.78-3.05c-13.09,0-24.45,6.72-30.15,16.55c-3.93-3.53-8.44-6.53-13.38-8.89
		c-0.55-19.49-18.1-35.13-39.69-35.13c-17.05,0-31.59,9.76-37.22,23.46c-15.94,1.72-29.18,11.43-34.7,24.6
		c-4.03-1.64-8.48-2.57-13.18-2.57c-11.85,0-22.19,5.82-27.77,14.48c-2.82-1.03-5.89-1.6-9.11-1.6c-13.58,0-24.59,9.99-24.59,22.32
		C2500.09,614.59,2511.1,624.58,2524.68,624.58z"/>

	<path id="back3" fill="url(#cloudy)" d="M2623.29,416.15
		c-1.18,0-2.32,0.02-3.46,0.08c-5.37-8.13-21.77-14.05-41.15-14.05c-19.23,0-35.52,5.83-41.01,13.87
		c-10.21-5.35-25.17-8.72-41.82-8.72c-8.7,0-16.94,0.92-24.28,2.56c-5.84-9.12-24.15-15.79-45.83-15.79
		c-26.41,0-47.8,9.87-47.8,22.05c0,2.55,0.94,5.01,2.7,7.3c-2.85-0.44-5.9-0.68-9.07-0.68c-8.95,0-16.94,1.9-22.2,4.86
		c-1.12,0.08-2.22,0.17-3.33,0.27c-3.64-2.23-9.03-3.79-15.25-4.25c-3.42-6.41-15.94-11.18-30.9-11.18
		c-11.38,0-21.33,2.75-26.96,6.89c-6-6.63-20.19-11.3-36.76-11.3c-16.39,0-30.46,4.57-36.56,11.1c-1.08-0.04-2.15-0.08-3.25-0.08
		c-4.7,0-9.23,0.33-13.5,0.93c-3.5-8.07-18.95-14.16-37.49-14.16c-7.42,0-14.31,0.99-20.17,2.67
		c-10.19-7.35-28.02-12.22-48.33-12.22c-12.22,0-23.52,1.76-32.83,4.76c-6.99-1.67-14.72-2.77-22.91-3.15
		c-13.93-9.82-38-16.32-65.36-16.32c-30.41,0-56.74,8.02-69.63,19.72c-7.03-21.16-46.66-37.36-94.48-37.36
		c-52.31,0-94.8,19.39-95.56,43.44c-1.59-0.05-3.19-0.08-4.82-0.08c-40.48,0-73.29,15.14-73.29,33.81c0,0.21,0.02,0.41,0.02,0.61
		c-9.31,2.77-15.84,7.35-17.24,12.66c-0.63-0.02-1.26-0.04-1.91-0.04c-17.59,0-31.86,6.58-31.86,14.7s14.27,14.7,31.86,14.7
		c14.15,0,26.11-4.25,30.29-10.13c3.05,0.36,6.24,0.58,9.54,0.58c7.48,0,14.43-1,20.31-2.72c9.74,2.21,20.68,3.45,32.26,3.45
		c15.35,0,29.6-2.18,41.37-5.9c14.33,11.43,41.09,19.13,71.77,19.13c24.46,0,46.42-4.89,61.6-12.66c5.29,0.59,10.78,0.91,16.47,0.91
		c3.54,0,7.03-0.12,10.43-0.36c11.89,5.66,28.5,9.18,46.92,9.18c35.25,0,63.96-12.88,65.26-29c3.15,0.22,6.36,0.33,9.62,0.33
		c15.02,0,28.81-2.4,39.69-6.41c3.48,4.58,12.91,7.88,24.05,7.88c7.83,0,14.84-1.64,19.5-4.2c6.63,4.32,17.53,7.14,29.87,7.14
		c13.2,0,24.74-3.22,31.17-8.05c7.85,4.97,20.23,8.3,34.36,8.72c-4.09,2.19-6.59,5.04-6.59,8.16c0,6.9,12.12,12.5,27.08,12.5
		c7.66,0,14.54-1.47,19.48-3.82c9.35,6.72,25.68,11.17,44.26,11.17c7.26,0,14.17-0.68,20.45-1.91c14.88,8.76,38,14.4,64,14.4
		c34.24,0,63.51-9.77,75.47-23.6c1.4,0.05,2.77,0.08,4.19,0.08c26.11,0,47.9-8.52,53.02-19.86c0.37,0,0.77,0.01,1.14,0.01
		c11.65,0,22.47-1.65,31.41-4.47c7.5,4.92,19.88,8.15,33.91,8.15c22.63,0,40.99-8.38,41.39-18.78c5.71,2.09,12.91,3.34,20.74,3.34
		c18.48,0,33.46-6.91,33.46-15.44C2656.75,423.06,2641.75,416.15,2623.29,416.15z"/>

	<path id="back2" fill="url(#cloudy)" d="M1790.28,551.1
		c-1.07-6.54-7.27-11.57-14.77-11.57c-3.79,0-7.24,1.29-9.88,3.41c-3.87-2.16-8.42-3.41-13.29-3.41c-3.42,0-6.69,0.62-9.67,1.73
		c-3.94-11.24-15.53-19.38-29.21-19.38c-5.4,0-10.48,1.28-14.89,3.5c-7.15-6.36-16.93-10.29-27.74-10.29
		c-11.86,0-22.49,4.73-29.75,12.22c-3.19-16.58-19.11-29.19-38.29-29.19c-4.09,0-8.04,0.58-11.75,1.65
		c-7.25-7.26-17.72-11.83-29.37-11.83c-21.65,0-39.24,15.76-39.61,35.34c-2.67-0.47-5.42-0.72-8.24-0.72
		c-12.64,0-24.01,4.91-31.93,12.73c-4.94-2.49-10.62-3.91-16.67-3.91c-1.35,0-2.69,0.08-4,0.21c0.16-1.19,0.26-2.39,0.26-3.61
		c0-15.75-14.06-28.51-31.41-28.51c-16.97,0-30.79,12.23-31.37,27.51c-11.25,1.75-20.05,10.02-21.49,20.38
		c-1.28-0.24-2.6-0.37-3.96-0.37c-10.74,0-19.44,7.9-19.44,17.65s8.7,17.65,19.44,17.65c6.04,0,11.44-2.51,15-6.43
		c-0.03,0.55-0.05,1.11-0.05,1.67c0,17.25,15.4,31.23,34.4,31.23c13.31,0,24.85-6.87,30.57-16.91c3.75,1.28,7.81,1.98,12.05,1.98
		c3.49,0,6.86-0.48,10.04-1.36c2.18,14.19,15.6,25.11,31.83,25.11c10.31,0,19.48-4.41,25.36-11.26c6.53,3.69,14.23,5.83,22.49,5.83
		c10.87,0,20.78-3.7,28.31-9.78c7.81,5.69,17.72,9.1,28.52,9.1c19.83,0,36.7-11.49,42.99-27.54c4.91,1.99,10.36,3.1,16.09,3.1
		c11.8,0,22.39-4.69,29.65-12.11c3.94,1.67,8.33,2.61,12.97,2.61c6,0,11.6-1.57,16.33-4.28c4.24,7.39,12.74,12.43,22.55,12.43
		c12.55,0,22.97-8.26,25.04-19.12c1.66-0.19,3.23-0.63,4.68-1.26c1.78,2.07,4.55,3.41,7.67,3.41c5.37,0,9.72-3.95,9.72-8.83
		C1799.44,555.2,1795.39,551.36,1790.28,551.1z"/>

	<path id="back1" fill="url(#cloudy)" d="M594.18,559.83
		c2.19,0,4.3-0.33,6.27-0.91c7.21,9.11,18.97,15.04,32.26,15.04c12.89,0,24.34-5.58,31.59-14.21c4,4.57,10.15,7.5,17.07,7.5
		c2.54,0,4.97-0.41,7.24-1.14c3.81,14.24,17.93,24.82,34.79,24.82c3.1,0,6.11-0.36,8.98-1.03c10.84,6.46,23.79,10.22,37.73,10.22
		c2.37,0,4.72-0.11,7.03-0.32c7,18.88,26.64,32.48,49.8,32.48c17.6,0,33.17-7.86,42.7-19.91c1.81,0.31,3.66,0.48,5.57,0.48
		c8.73,0,16.57-3.44,21.99-8.89c7.4,5.13,16.64,8.18,26.66,8.18c16.85,0,31.47-8.6,38.86-21.22c14.61-2.17,25.76-13.67,25.76-27.54
		c0-5.31-1.63-10.27-4.46-14.49c6.99-2.56,12.14-8.37,13.19-15.37c3.31,1.25,6.93,1.94,10.73,1.94c4.49,0,8.72-0.98,12.48-2.69
		c-0.01,0.31-0.03,0.61-0.03,0.93c0,18.73,16.73,33.92,37.37,33.92c9.93,0,18.96-3.52,25.65-9.26c4.46,1.64,9.34,2.55,14.45,2.55
		c14.59,0,27.29-7.36,33.83-18.22c7.39,5.01,16.57,7.97,26.5,7.97c11.41,0,21.8-3.91,29.66-10.33
		c3.17,20.03,22.13,35.42,45.07,35.42c21.83,0,40.05-13.94,44.5-32.55c4.16-0.81,7.81-2.85,10.48-5.69
		c6.02,5.29,14.22,8.55,23.27,8.55c14.05,0,26.08-7.86,31.04-19.01c4.43,2.84,9.83,4.52,15.67,4.52c6.72,0,12.85-2.22,17.6-5.88
		c2.81,9.48,12.32,16.47,23.66,16.47c8.04,0,15.15-3.52,19.62-8.94c5.51,5.08,13.17,8.24,21.64,8.24c14.65,0,26.87-9.42,29.73-21.95
		c2.79,2.43,6.58,3.93,10.75,3.93c8.6,0,15.57-6.33,15.57-14.14s-6.97-14.13-15.57-14.13c-0.82,0-1.61,0.07-2.39,0.18
		c-2.01-5.25-7.5-9.02-13.96-9.02c-3.72,0-7.1,1.25-9.7,3.31c-4.29-2.11-9.21-3.31-14.43-3.31c-6.41,0-12.35,1.81-17.25,4.89
		c0.08-0.79,0.13-1.6,0.13-2.42c0-14.44-12.9-26.15-28.81-26.15c-13.83,0-25.38,8.85-28.16,20.66c-2.65-0.79-5.48-1.22-8.42-1.22
		c-9.86,0-18.47,4.78-23.26,11.9c-6.04-5.38-14.32-8.71-23.45-8.71c-5.01,0-9.75,1-14.01,2.79c-2.25-12.41-14.11-21.87-28.42-21.87
		c-11.26,0-21,5.87-25.73,14.41c-1.39-0.18-2.8-0.28-4.24-0.28c-3.67,0-7.18,0.6-10.43,1.7c-4.7-7.75-13.78-13-24.22-13
		c-8.16,0-15.46,3.23-20.52,8.33c-7.2-4.58-15.96-7.27-25.41-7.27c-9.26,0-17.87,2.58-24.98,6.98c-2.23-10.81-12.67-19-25.23-19
		c-3.01,0-5.88,0.49-8.56,1.36c-8.99-10.09-22.73-16.55-38.15-16.55c-18.17,0-34.03,8.98-42.5,22.31
		c-6.14-4.24-13.8-6.76-22.11-6.76c-20.21,0-36.59,14.87-36.59,33.22c0,0.4,0.02,0.8,0.03,1.2c-7.37-4.75-16.38-7.56-26.11-7.56
		c-4.36,0-8.57,0.57-12.55,1.61c0.06-0.77,0.1-1.54,0.1-2.32c0-19.13-17.08-34.63-38.15-34.63c-16.38,0-30.33,9.37-35.74,22.52
		c-4.71-7.73-13.78-12.98-24.2-12.98c-13.44,0-24.62,8.71-27.11,20.25c-8.08-3.02-16.93-4.7-26.21-4.7
		c-17.12,0-32.78,5.68-44.83,15.07c-7.21-7.91-18.11-12.95-30.3-12.95c-20.17,0-36.79,13.8-39.04,31.56
		c-6.53-4.29-14.56-6.82-23.24-6.82c-16.15,0-30.04,8.76-36.24,21.33c-0.76-0.08-1.52-0.13-2.29-0.13
		c-11.18,0-20.24,8.23-20.24,18.38C573.93,551.61,583,559.83,594.18,559.83z"/>
</g>
<g id="mid">
	
		<animateTransform  attributeName="transform" begin="0s" calcMode="linear" dur="50s" fill="freeze" id="startloop_mid" repeatCount="1" restart="always" type="translate" values="0,0; -6500,0">
		</animateTransform>
	
		<animateTransform  attributeName="transform" begin="startloop_mid.end" calcMode="linear" dur="60s" fill="freeze" repeatCount="indefinite" restart="always" type="translate" values="1000,0; -6500,0">
		</animateTransform>
	
	<path id="mid23" fill="url(#cloudy)" d="M6185.17,372.97
		c-3.2,0-6.17,0.86-8.68,2.32c-4.87-5.36-12.24-8.77-20.48-8.77c-1.21,0-2.39,0.08-3.55,0.22c0.35-1.38,0.56-2.81,0.56-4.29
		c0-10.5-9.37-19-20.94-19c-8,0-14.95,4.08-18.48,10.07c-3.04-1.11-6.26-1.89-9.62-2.29c0.04-0.67,0.05-1.34,0.05-2.02
		c0-21.74-19.42-39.37-43.37-39.37s-43.37,17.63-43.37,39.37c0,1.85,0.15,3.67,0.42,5.46c-0.39-0.01-0.78-0.03-1.17-0.03
		c-4.94,0-9.62,0.97-13.84,2.7c0-0.11,0.01-0.22,0.01-0.33c0-25.31-22.6-45.82-50.48-45.82c-0.98,0-1.96,0.03-2.93,0.08
		c-8.35-14-24.66-23.5-43.43-23.5c-22.69,0-41.79,13.9-47.56,32.84c-5.99-7.36-15.62-12.13-26.47-12.13
		c-10.98,0-20.7,4.89-26.67,12.4c-2.47-7.18-9.85-12.4-18.56-12.4c-10.74,0-19.44,7.9-19.44,17.65s8.7,17.65,19.44,17.65
		c4.7,0,9.01-1.52,12.38-4.04c0.23,4.58,1.6,8.89,3.85,12.7c-1.78,3.57-2.77,7.53-2.77,11.7c0,15.75,14.06,28.51,31.41,28.51
		c11.1,0,20.86-5.24,26.44-13.14c4.46,14.62,19.22,25.36,36.74,25.36c4.33,0,8.48-0.66,12.36-1.87c5.47,11.34,17.85,19.3,32.31,19.5
		c-0.11,1.12-0.18,2.26-0.18,3.41c0,20.25,18.08,36.66,40.38,36.66s40.38-16.41,40.38-36.66c0-3.55-0.57-6.98-1.6-10.22
		c6.13-0.28,11.83-2.07,16.66-4.95c1.01,10.59,10.78,18.91,22.71,18.91c9.15,0,17.01-4.9,20.65-11.96
		c5.98,3.28,12.98,5.17,20.48,5.17c5.3,0,10.35-0.96,14.97-2.67c0,0.1-0.02,0.19-0.02,0.29c0,9.37,8.37,16.97,18.7,16.97
		c10.32,0,18.69-7.6,18.69-16.97c0-2.28-0.51-4.46-1.41-6.45c2.01,0.44,4.11,0.68,6.27,0.68c10.43,0,19.45-5.46,23.79-13.41
		c1.68,0.54,3.48,0.85,5.37,0.85c8.88,0,16.07-6.53,16.07-14.59C6201.25,379.51,6194.05,372.97,6185.17,372.97z"/>

	<path id="mid22" fill="url(#cloudy)" d="M5917.46,297.82
		c0-7.97-7.12-14.43-15.89-14.43c-6.54,0-12.15,3.58-14.59,8.7c-5.58-3.57-12.37-5.66-19.71-5.66c-18.95,0-34.3,13.94-34.3,31.14
		s15.35,31.14,34.3,31.14c18.94,0,34.3-13.94,34.3-31.14c0-1.82-0.18-3.6-0.52-5.34c0.17,0.01,0.34,0.02,0.52,0.02
		C5910.35,312.25,5917.46,305.79,5917.46,297.82z"/>

	<path id="mid21" fill="url(#cloudy)" d="M5417.31,341.29
		c-0.04,0-0.08,0-0.13,0c5.54-5,8.98-11.93,8.98-19.58c0-15.25-13.62-27.62-30.42-27.62s-30.42,12.36-30.42,27.62
		c0,0.58,0.03,1.16,0.07,1.74c-3.99-2.37-8.77-3.75-13.89-3.75c-7.61,0-14.44,3.04-19.1,7.85c-5.36-5.43-13.15-8.85-21.82-8.85
		c-7.79,0-14.87,2.77-20.12,7.27c-7.06-10.67-19.93-17.81-34.63-17.81c-22.3,0-40.37,16.41-40.37,36.65c0,2.34,0.25,4.62,0.72,6.84
		c-10.57,4.62-17.86,14.44-17.86,25.79c0,15.81,14.11,28.62,31.52,28.62c5.68,0,11-1.37,15.6-3.75
		c4.61,17.42,21.87,30.36,42.47,30.36c2.66,0,5.26-0.23,7.79-0.64c8.67,12.16,23.73,20.22,40.88,20.22
		c26.88,0,48.67-19.78,48.67-44.18c0-3.15-0.37-6.22-1.06-9.18c8.93-2.88,16.01-9.31,19.17-17.42c3.95,2.52,8.77,4.01,13.97,4.01
		c13.44,0,24.33-9.89,24.33-22.09C5441.64,351.19,5430.74,341.29,5417.31,341.29z"/>

	<path id="mid20" fill="url(#cloudy)" d="M5238.36,409.48
		c0-7.6-6.79-13.77-15.17-13.77c-1.76,0-3.46,0.29-5.03,0.8c-1.37-14.51-14.77-25.9-31.1-25.9c-11.21,0-21.03,5.36-26.54,13.41
		c-3.5-1.33-7.34-2.07-11.38-2.07c-16.26,0-29.44,11.97-29.44,26.73s13.18,26.72,29.44,26.72c1.77,0,3.51-0.15,5.19-0.42
		c3.12,6.67,10.41,11.36,18.89,11.36c5.01,0,9.6-1.63,13.16-4.34c4.29,8.53,13.76,14.46,24.76,14.46c15.03,0,27.21-11.06,27.21-24.7
		c0-4.75-1.48-9.18-4.04-12.94C5236.82,416.36,5238.36,413.09,5238.36,409.48z"/>

	<path id="mid19" fill="url(#cloudy)" d="M4545.55,444.59
		c-0.31,1.36-0.48,2.76-0.48,4.2c0,11.27,10.06,20.41,22.48,20.41c5.02,0,9.64-1.51,13.39-4.04c7.15,9.91,19.49,16.46,33.52,16.46
		c2.58,0,5.09-0.23,7.53-0.65c6.06,7.39,15.75,12.18,26.67,12.18c18.35,0,33.23-13.51,33.23-30.16c0-4.52-1.1-8.8-3.06-12.65
		c2.51,0.72,5.17,1.11,7.95,1.11c14.57,0,26.39-10.72,26.39-23.95s-11.81-23.95-26.39-23.95c-11.18,0-20.71,6.32-24.55,15.24
		c-2.11-0.66-4.36-1.04-6.72-1.04c-4.19,0-8.08,1.14-11.33,3.1c-7.33-7.35-17.93-11.97-29.71-11.97c-16.4,0-30.49,8.95-36.69,21.76
		c-3.07-1.42-6.53-2.24-10.22-2.24c-0.48,0-0.95,0.04-1.43,0.07c-2.47-3.26-6.59-5.39-11.27-5.39c-7.55,0-13.68,5.56-13.68,12.42
		C4541.16,439.09,4542.85,442.33,4545.55,444.59z"/>
	
	<path id="mid18" fill="url(#cloudy)" d="M4184.33,338.08
		c0,9.31,8.31,16.85,18.57,16.85c7.63,0,14.18-4.19,17.04-10.17c6.51,4.17,14.45,6.61,23.02,6.61c22.13,0,40.06-16.28,40.06-36.37
		s-17.93-36.37-40.06-36.37s-40.06,16.28-40.06,36.37c0,2.13,0.21,4.21,0.6,6.24c-0.2-0.01-0.4-0.03-0.6-0.03
		C4192.64,321.23,4184.33,328.77,4184.33,338.08z"/>

	<path id="mid17" fill="url(#cloudy)" d="M4621.35,370.13
		c-7.08,0-13.14,3.95-15.66,9.56c-5.21-6.59-13.71-10.89-23.33-10.89c-8.13,0-15.47,3.07-20.69,8.01
		c-1.07-13.69-12.95-24.67-27.94-25.92c-5.14-8.43-15.04-14.15-26.41-14.15c-14.33,0-26.31,9.07-29.39,21.23
		c-4.83-11.62-17.18-19.89-31.67-19.89c-1.55,0-3.07,0.1-4.56,0.29c0.1-0.98,0.15-1.96,0.15-2.96c0-15.65-11.86-28.78-27.86-32.4
		c5.81-4.65,9.47-11.45,9.47-19.02c0-14.02-12.52-25.38-27.95-25.38c-9.17,0-17.31,4.01-22.41,10.2
		c-4.17-4.51-9.16-8.38-14.75-11.42c-2.04-10.68-12.29-18.81-24.64-18.81c-10.39,0-19.29,5.75-23.07,13.92
		c-23.33,6.86-40.2,26.73-40.2,50.19c0,5.36,0.89,10.53,2.52,15.4c-4-1.32-8.32-2.04-12.82-2.04c-20.72,0-37.52,15.25-37.52,34.06
		c0,0.26,0.02,0.51,0.02,0.76c-12.79,1.01-22.83,10.74-22.83,22.62c0,0.93,0.07,1.86,0.19,2.77c-2.18-0.5-4.46-0.77-6.81-0.77
		c-7.47,0-14.25,2.66-19.26,6.99c-5.54-4.75-12.99-7.66-21.21-7.66c-3.4,0-6.67,0.51-9.73,1.43c-0.67-0.06-1.35-0.09-2.03-0.09
		c-11.78,0-21.34,8.67-21.34,19.37c0,3.09,0.82,6.01,2.24,8.6c0.02,0.46,0.06,0.92,0.11,1.37c-1.19-0.4-2.48-0.63-3.82-0.63
		c-6.1,0-11.03,4.49-11.03,10.02s4.94,10.02,11.03,10.02c4.23,0,7.9-2.17,9.75-5.34c5.63,6.89,14.65,11.35,24.82,11.35
		c9.42,0,17.85-3.83,23.52-9.87c4.7,3.26,10.57,5.2,16.95,5.2c2.83,0,5.56-0.39,8.13-1.09c6.53,8.34,17.25,13.79,29.39,13.79
		c13.33,0,24.97-6.58,31.21-16.36c7.18,5.22,16.27,8.34,26.18,8.34c8.55,0,16.49-2.33,23.13-6.31
		c7.08,12.47,21.41,21.01,37.93,21.01c10.12,0,19.41-3.21,26.73-8.55c3.89,1.34,8.05,2.19,12.4,2.45
		c1.43,13.91,14.32,24.8,30.02,24.8c11.92,0,22.22-6.28,27.12-15.38c0.28,0.01,0.56,0.02,0.84,0.02c10.54,0,19.68-5.44,24.2-13.4
		c2.64,0.47,5.37,0.72,8.17,0.72c9.36,0,18.01-2.74,25.05-7.38c8.47-0.26,15.71-4.85,19.15-11.41c2.92,10.79,13.64,18.8,26.43,18.8
		c11.77,0,21.79-6.78,25.59-16.27c2.39,0.59,4.91,0.91,7.52,0.91c14.83,0,27.04-10.23,28.54-23.33c2.88,2.06,6.5,3.3,10.45,3.3
		c9.35,0,16.92-6.88,16.92-15.36C4638.27,377,4630.69,370.13,4621.35,370.13z"/>

	<path id="mid16" fill="url(#cloudy)" d="M3914.17,344.77
		c8.74,0,16.62,3.37,22.15,8.74c7.13-21.26,28.9-36.73,54.65-36.73c21.84,0,40.81,11.13,50.42,27.48c3.1-0.62,6.32-0.94,9.63-0.94
		c24.95,0,45.17,18.36,45.17,41.01s-20.23,41.01-45.17,41.01c-1.63,0-3.24-0.08-4.82-0.23c0.2,1.26,0.31,2.54,0.31,3.85
		c0,15.19-13.56,27.5-30.29,27.5c-15.12,0-27.65-10.06-29.92-23.21c-6.82,4.29-15.1,6.81-24.02,6.81
		c-23.33,0-42.25-17.17-42.25-38.35c0-0.83,0.04-1.65,0.1-2.46c-1.92,0.35-3.91,0.53-5.94,0.53c-16.73,0-30.29-12.31-30.29-27.5
		C3883.88,357.08,3897.44,344.77,3914.17,344.77z"/>

	<path id="mid15" fill="url(#cloudy)" d="M4060.34,345.64
		c0-11.33-10.11-20.51-22.59-20.51c-8.79,0-16.39,4.57-20.12,11.23c-3.45-0.88-7.08-1.35-10.83-1.35c-2.53,0-5,0.22-7.39,0.63
		c-3.16-13.8-16.63-24.17-32.76-24.17c-1.42,0-2.82,0.09-4.2,0.25c-0.3-13.6-12.54-24.55-27.59-24.55c-0.43,0-0.86,0.01-1.28,0.03
		c-5.79-10.38-17.65-17.5-31.35-17.5c-5.63,0-10.94,1.21-15.65,3.34c-11.43-14.01-29.77-23.09-50.44-23.09
		c-27.22,0-50.38,15.73-59.07,37.72c-3.87-0.82-7.9-1.27-12.04-1.27c-29.11,0-52.7,21.42-52.7,47.85c0,0.39,0.02,0.78,0.03,1.17
		c-4.7-3.12-10.5-4.97-16.77-4.97c-15.71,0-28.44,11.56-28.44,25.82c0,10.13,6.43,18.9,15.79,23.12c-1.01,3.27-1.57,6.72-1.57,10.29
		c0,20.97,18.73,37.97,41.83,37.97c12.44,0,23.6-4.93,31.27-12.76c6.12,3.74,13.5,5.92,21.44,5.92c17.75,0,32.68-10.91,37.13-25.74
		c7.82,8.75,19.76,14.35,33.14,14.35c12.22,0,23.23-4.67,31-12.14c9.39,6.2,20.93,9.86,33.42,9.86c8.13,0,15.86-1.56,22.86-4.35
		c2.19,16.99,18.08,30.17,37.38,30.17c17.32,0,31.89-10.62,36.28-25.07c22.04-0.15,39.84-16.41,39.84-36.45
		c0-2.33-0.25-4.62-0.71-6.83C4054.51,361.58,4060.34,354.23,4060.34,345.64z"/>

	<path id="mid13" fill="url(#cloudy)" d="M3553.11,259.02
		c0,8.88,7.93,16.09,17.71,16.09c2.06,0,4.03-0.34,5.88-0.93c1.6,16.95,17.25,30.25,36.33,30.25c13.09,0,24.56-6.26,31-15.66
		c4.09,1.56,8.58,2.42,13.3,2.42c18.99,0,34.39-13.98,34.39-31.22s-15.4-31.22-34.39-31.22c-2.07,0-4.1,0.17-6.07,0.49
		c-3.65-7.8-12.15-13.26-22.07-13.26c-5.85,0-11.21,1.91-15.37,5.07c-5.01-9.96-16.07-16.9-28.92-16.9
		c-17.55,0-31.78,12.92-31.78,28.85c0,5.54,1.72,10.72,4.71,15.12C3554.91,250.99,3553.11,254.81,3553.11,259.02z"/>

	<path id="mid12" fill="url(#cloudy)" d="M3678.5,515.83
		c0-11.65-10.41-21.1-23.24-21.1c-0.12,0-0.23,0.01-0.35,0.01c-5.36-10.56-17.12-17.9-30.77-17.9c-2.19,0-4.34,0.2-6.41,0.56
		c0.07-0.78,0.11-1.56,0.11-2.35c0-16.99-15.17-30.76-33.88-30.76c-13.69,0-25.47,7.37-30.81,17.97c-6.06-5.16-14.2-8.32-23.16-8.32
		c-18,0-32.71,12.75-33.8,28.84c-1.05-0.13-2.12-0.23-3.22-0.23c-12.84,0-23.24,9.45-23.24,21.1c0,1.6,0.21,3.15,0.58,4.65
		c-2.83-0.69-5.79-1.07-8.85-1.07c-18.71,0-33.88,13.77-33.88,30.75c0,16.99,15.16,30.75,33.88,30.75c2.77,0,5.45-0.31,8.03-0.88
		c1.29,10.55,11.13,18.76,23.09,18.76c9.24,0,17.19-4.9,20.94-11.99c6.13,7.08,15.64,11.63,26.33,11.63
		c5.14,0,10.01-1.06,14.37-2.94c2.92,14.29,16.71,25.11,33.3,25.11c18.71,0,33.88-13.77,33.88-30.75c0-2.83-0.43-5.56-1.21-8.16
		c3.03-1.7,5.6-4.01,7.49-6.75c3.38,1.74,7.28,2.75,11.45,2.75c12.83,0,23.24-9.45,23.24-21.1c0-2.87-0.63-5.6-1.77-8.08
		C3670.84,534.17,3678.5,525.82,3678.5,515.83z"/>

	<path id="mid11" fill="url(#cloudy)" d="M2964.76,306.02
		c3.74,0,7.21-1,10.13-2.71c5.69,6.26,14.3,10.24,23.93,10.24c1.41,0,2.79-0.1,4.14-0.26c-0.41,1.62-0.65,3.29-0.65,5.02
		c0,12.26,10.95,22.2,24.45,22.2c9.35,0,17.47-4.76,21.58-11.76c3.55,1.3,7.32,2.21,11.24,2.67c-0.04,0.78-0.06,1.56-0.06,2.35
		c0,25.4,22.68,45.99,50.66,45.99s50.66-20.59,50.66-45.99c0-2.16-0.18-4.29-0.49-6.38c0.45,0.01,0.91,0.03,1.37,0.03
		c5.77,0,11.24-1.14,16.17-3.16c0,0.13-0.01,0.26-0.01,0.39c0,29.56,26.4,53.52,58.96,53.52c1.15,0,2.29-0.04,3.42-0.1
		c9.75,16.35,28.81,27.45,50.73,27.45c26.5,0,48.81-16.24,55.55-38.35c7,8.59,18.24,14.17,30.92,14.17
		c12.83,0,24.18-5.71,31.16-14.48c2.88,8.39,11.5,14.48,21.69,14.48c12.54,0,22.71-9.23,22.71-20.62s-10.17-20.62-22.71-20.62
		c-5.49,0-10.53,1.77-14.46,4.72c-0.27-5.35-1.86-10.38-4.5-14.84c2.07-4.17,3.24-8.8,3.24-13.67c0-18.39-16.43-33.3-36.69-33.3
		c-12.97,0-24.36,6.12-30.89,15.35c-5.21-17.08-22.44-29.62-42.92-29.62c-5.06,0-9.91,0.77-14.43,2.18
		c-6.4-13.25-20.86-22.54-37.75-22.78c0.13-1.31,0.21-2.64,0.21-3.98c0-23.65-21.12-42.82-47.17-42.82s-47.16,19.17-47.16,42.82
		c0,4.14,0.66,8.15,1.87,11.94c-7.16,0.33-13.81,2.42-19.45,5.78c-1.18-12.37-12.6-22.08-26.52-22.08
		c-10.69,0-19.88,5.73-24.12,13.97c-6.98-3.83-15.17-6.04-23.92-6.04c-6.19,0-12.09,1.11-17.49,3.11c0-0.11,0.02-0.22,0.02-0.34
		c0-10.95-9.78-19.82-21.84-19.82s-21.84,8.88-21.84,19.82c0,2.67,0.59,5.21,1.65,7.54c-2.35-0.52-4.8-0.79-7.32-0.79
		c-12.18,0-22.72,6.38-27.79,15.66c-1.96-0.63-4.07-0.99-6.27-0.99c-10.37,0-18.78,7.63-18.78,17.05
		C2945.98,298.39,2954.39,306.02,2964.76,306.02z"/>

	<path id="mid10" fill="url(#cloudy)" d="M3225.47,505.34
		c-10.21,0-19.41-3.93-25.87-10.21c-8.33,24.83-33.76,42.9-63.84,42.9c-25.51,0-47.67-13-58.9-32.1c-3.62,0.72-7.39,1.1-11.25,1.1
		c-29.14,0-52.77-21.44-52.77-47.9s23.62-47.9,52.77-47.9c1.9,0,3.78,0.1,5.63,0.27c-0.23-1.47-0.36-2.97-0.36-4.5
		c0-17.74,15.84-32.12,35.39-32.12c17.66,0,32.3,11.75,34.95,27.11c7.97-5.01,17.63-7.95,28.06-7.95c27.25,0,49.35,20.05,49.35,44.8
		c0,0.97-0.04,1.92-0.11,2.88c2.25-0.41,4.57-0.62,6.94-0.62c19.54,0,35.38,14.38,35.38,32.12
		C3260.85,490.96,3245.01,505.34,3225.47,505.34z"/>

	<path id="mid7" fill="url(#cloudy)" d="M2682.66,424.96
		c-7.2,0-13.35,4.02-15.92,9.71c-5.29-6.7-13.94-11.07-23.71-11.07c-8.26,0-15.72,3.12-21.03,8.14
		c-1.09-13.92-13.16-25.07-28.4-26.35c-5.23-8.57-15.28-14.38-26.84-14.38c-14.56,0-26.74,9.22-29.87,21.57
		c-4.91-11.81-17.46-20.22-32.19-20.22c-1.57,0-3.12,0.1-4.64,0.29c0.1-0.99,0.15-1.99,0.15-3.01c0-15.91-12.05-29.25-28.32-32.93
		c5.9-4.73,9.63-11.63,9.63-19.34c0-14.25-12.72-25.8-28.42-25.8c-9.32,0-17.59,4.07-22.78,10.37c-4.24-4.59-9.3-8.52-14.99-11.61
		c-2.07-10.86-12.49-19.12-25.04-19.12c-10.56,0-19.6,5.84-23.45,14.15c-23.71,6.97-40.86,27.17-40.86,51.02
		c0,5.45,0.9,10.7,2.56,15.65c-4.07-1.34-8.46-2.07-13.03-2.07c-21.06,0-38.13,15.5-38.13,34.62c0,0.26,0.01,0.52,0.02,0.77
		c-13,1.02-23.2,10.92-23.2,22.99c0,0.95,0.07,1.89,0.2,2.81c-2.22-0.51-4.54-0.78-6.93-0.78c-7.59,0-14.48,2.71-19.58,7.11
		c-5.63-4.82-13.2-7.78-21.55-7.78c-3.46,0-6.78,0.52-9.89,1.45c-0.68-0.06-1.37-0.09-2.07-0.09c-11.98,0-21.69,8.81-21.69,19.68
		c0,3.15,0.84,6.11,2.28,8.74c0.02,0.47,0.06,0.94,0.11,1.4c-1.21-0.41-2.52-0.64-3.88-0.64c-6.2,0-11.21,4.56-11.21,10.18
		s5.02,10.18,11.21,10.18c4.3,0,8.03-2.2,9.92-5.43c5.72,7,14.89,11.53,25.23,11.53c9.58,0,18.15-3.89,23.91-10.03
		c4.78,3.31,10.75,5.28,17.22,5.28c2.87,0,5.65-0.39,8.27-1.11c6.64,8.47,17.54,14.01,29.87,14.01c13.55,0,25.38-6.69,31.72-16.62
		c7.29,5.3,16.54,8.47,26.61,8.47c8.69,0,16.77-2.36,23.51-6.42c7.2,12.68,21.76,21.35,38.56,21.35c10.29,0,19.74-3.26,27.17-8.69
		c3.95,1.37,8.19,2.23,12.6,2.49c1.45,14.14,14.56,25.21,30.52,25.21c12.11,0,22.58-6.38,27.56-15.64c0.28,0.01,0.57,0.02,0.85,0.02
		c10.72,0,20.01-5.53,24.6-13.62c2.69,0.47,5.46,0.73,8.3,0.73c9.51,0,18.31-2.79,25.46-7.5c8.61-0.27,15.97-4.93,19.47-11.6
		c2.97,10.97,13.86,19.1,26.86,19.1c11.96,0,22.15-6.89,26.01-16.54c2.43,0.6,4.99,0.93,7.64,0.93c15.08,0,27.49-10.39,29.01-23.72
		c2.93,2.09,6.61,3.35,10.62,3.35c9.5,0,17.2-6.99,17.2-15.61C2699.86,431.95,2692.16,424.96,2682.66,424.96z"/>

	<path id="mid6" fill="url(#cloudy)" d="M2028.09,478.72
		c8.67,0,16.66-2.64,23.06-7.06c10.22,21.38,33.67,36.34,60.98,36.34c26.97,0,50.17-14.59,60.58-35.55
		c7.17,6.09,16.78,9.82,27.37,9.82c16.03,0,29.86-8.56,36.27-20.91c9.37,4.29,19.95,6.72,31.16,6.72c38.32,0,69.39-28.2,69.39-62.99
		c0-34.78-31.06-62.99-69.39-62.99c-19.7,0-37.48,7.47-50.11,19.45c-7.73-3.91-16.63-6.15-26.11-6.15c-4.13,0-8.15,0.44-12.01,1.24
		c-7.41-18.33-26.8-31.4-49.55-31.4c-29.14,0-52.77,21.45-52.77,47.91c0,7.41,1.86,14.43,5.17,20.7c-0.42,0.2-0.85,0.38-1.26,0.59
		c-3.01-1.14-6.31-1.77-9.77-1.77c-13.2,0-24.04,9.14-25.28,20.82c-5.29-2.53-11.32-3.97-17.72-3.97
		c-21.05,0-38.11,15.49-38.11,34.6C1989.98,463.23,2007.04,478.72,2028.09,478.72z"/>

	<path id="mid5" fill="url(#cloudy)" d="M1776.11,469.65
		c-4.9,2.69-7.72,7.96-6.61,13.24c1.4,6.6,8.42,10.71,15.7,9.17c1.31-0.28,2.53-0.72,3.67-1.3c5.32,4.83,13.21,7.1,21.27,5.4
		c2.95-0.62,5.65-1.74,8.05-3.21c8.68,21.44,33.55,33.96,59.21,28.53c28.48-6.02,47.14-31.87,41.68-57.73
		c-0.61-2.88-1.51-5.64-2.64-8.26c2.89-1.67,5.56-3.6,7.98-5.75c8.23,6.11,19.44,8.78,30.87,6.36c0.77-0.16,1.52-0.35,2.27-0.56
		c11.28,14.23,31.23,21.58,51.71,17.25c2.61-0.55,5.13-1.27,7.56-2.15c8.06,8.55,20.98,12.77,34.22,9.97
		c9.07-1.92,16.68-6.78,21.82-13.22c7.78,8.06,18.89,13.09,31.04,13.76c-0.2,2.62-0.04,5.28,0.52,7.95
		c3.49,16.51,21.06,26.77,39.24,22.93s30.09-20.34,26.6-36.84c-0.51-2.41-1.33-4.69-2.4-6.81c3.01-0.76,5.81-1.91,8.35-3.37
		c2.52,7.97,11.38,12.76,20.55,10.82l0.05-0.01c2.33,8.22,11.33,13.22,20.66,11.24c9.7-2.05,16.05-10.85,14.19-19.65
		s-11.23-14.28-20.93-12.23c0,0-0.04,0.01-0.05,0.01c-2.26-7.96-10.78-12.88-19.8-11.39c0.33-2.71,0.24-5.5-0.35-8.29
		c-3.14-14.85-18.96-24.09-35.32-20.63c-1.84,0.39-3.6,0.93-5.29,1.59c-7.58-12.65-22.02-20.71-38.1-21.15
		c0.26-3.17,0.07-6.41-0.61-9.65c-4.19-19.8-25.27-32.12-47.09-27.51c-1.92,0.41-3.77,0.93-5.56,1.56
		c-10.09-21.29-35.61-33.45-61.91-27.89c-28.94,6.12-48.32,31.46-44.95,57.68c-3.37-0.16-6.83,0.1-10.32,0.83
		c-3.6,0.76-6.97,1.98-10.06,3.56c-10.21-13.38-28.7-20.34-47.67-16.33c-25.46,5.38-42.13,28.47-37.25,51.58
		c0.15,0.69,0.31,1.37,0.49,2.05c-2.72,1.15-5.32,2.51-7.76,4.03c-5-7.08-14.5-10.84-24.26-8.78c-5.12,1.08-9.51,3.61-12.79,6.98
		c-5.26-4.02-12.49-5.8-19.88-4.24c-12.73,2.69-21.07,14.24-18.62,25.79C1765.03,461.74,1769.83,466.98,1776.11,469.65z"/>

	<path id="mid3" fill="url(#cloudy)" d="M1130.68,520.65
		c7.66,0,14.33-3.86,17.78-9.55c5.42,3.2,11.88,5.06,18.83,5.06c4.24,0,8.31-0.69,12.07-1.96c6.6,10.3,18.88,17.23,32.95,17.23
		c21.03,0,38.09-15.48,38.09-34.58c0-0.24-0.01-0.48-0.02-0.72c4.34,1.9,9.21,2.97,14.36,2.97c14.34,0,26.54-8.27,31.16-19.83
		c9.55,12.52,25.48,20.73,43.53,20.73c21.99,0,40.84-12.18,48.84-29.5c2.85,1.09,5.93,1.78,9.15,2.01c-0.38,1.63-0.6,3.31-0.6,5.03
		c0,13.14,11.74,23.8,26.22,23.8c2.85,0,5.6-0.43,8.17-1.19c5.39,9.25,16.1,15.56,28.44,15.56c17.76,0,32.15-13.07,32.15-29.19
		c0-1.69-0.17-3.35-0.47-4.96c3.65-0.06,7.13-0.74,10.32-1.94c4.11,2.91,9.27,4.66,14.88,4.66c13.39,0,24.24-9.85,24.24-22.01
		s-10.85-22.01-24.24-22.01c-1.12,0-2.22,0.1-3.31,0.23c-4.27-5.08-10.57-8.66-17.81-9.74c-3.94-17.88-21.34-31.36-42.19-31.36
		c-5.59,0-10.93,0.98-15.83,2.74c-7.5-9.79-19.99-16.21-34.13-16.21c-4.88,0-9.56,0.77-13.91,2.17
		c-5.56-20.08-25.57-34.95-49.41-34.95c-27.38,0-49.71,19.6-50.9,44.19c-1.32-0.12-2.66-0.18-4.01-0.18
		c-18.62,0-34.38,11.11-39.66,26.44c-2.77-0.83-5.73-1.29-8.81-1.29c-11.23,0-20.9,5.97-25.44,14.6
		c-9.92,5.08-16.61,14.74-16.61,25.81c0,0.92,0.05,1.84,0.14,2.74c-6.34-7.4-16.23-12.17-27.35-12.17
		c-18.83,0-34.13,13.64-34.61,30.63c-0.66-0.06-1.32-0.09-2-0.09c-11.2,0-20.28,8.24-20.28,18.41
		C1110.4,512.41,1119.48,520.65,1130.68,520.65z"/>
	
	<path id="mid2" fill="url(#cloudy)" d="M840.2,450.52
		c0,13.23,11.81,23.95,26.39,23.95c10.27,0,19.15-5.34,23.51-13.11c4.03,1.02,8.27,1.58,12.65,1.58c2.95,0,5.84-0.26,8.64-0.73
		c3.69,16.12,19.42,28.23,38.27,28.23c1.66,0,3.3-0.1,4.91-0.28c0.35,15.89,14.64,28.68,32.23,28.68c0.5,0,1-0.02,1.5-0.04
		c6.77,12.12,20.62,20.44,36.62,20.44c6.57,0,12.77-1.41,18.28-3.9c13.36,16.36,34.77,26.97,58.92,26.97
		c31.79,0,58.84-18.38,68.99-44.07c4.52,0.96,9.22,1.48,14.07,1.48c34,0,61.56-25.02,61.56-55.89c0-0.46-0.03-0.91-0.04-1.36
		c5.5,3.64,12.26,5.8,19.58,5.8c18.35,0,33.23-13.51,33.23-30.16c0-11.84-7.51-22.07-18.45-27.01c1.18-3.82,1.83-7.85,1.83-12.03
		c0-24.5-21.87-44.35-48.86-44.35c-14.53,0-27.57,5.76-36.52,14.9c-7.15-4.37-15.77-6.92-25.04-6.92
		c-20.73,0-38.18,12.75-43.37,30.07c-9.14-10.22-23.08-16.76-38.72-16.76c-14.27,0-27.13,5.45-36.21,14.17
		c-10.96-7.23-24.44-11.51-39.03-11.51c-9.5,0-18.53,1.82-26.7,5.08c-2.55-19.84-21.13-35.24-43.66-35.24
		c-20.23,0-37.25,12.4-42.38,29.29c-25.74,0.18-46.54,19.17-46.54,42.57c0,2.73,0.3,5.39,0.83,7.98
		C847.02,431.89,840.2,440.48,840.2,450.52z"/>
	
	<path id="mid1" fill="url(#cloudy)" d="M648.11,375.97
		c0,16.2,14.47,29.34,32.31,29.34c3.2,0,6.28-0.43,9.19-1.21c5.83,10.14,17.51,17.07,30.99,17.07c4.35,0,8.51-0.73,12.35-2.05
		c5.79,3.3,12.62,5.22,19.96,5.22c4.86,0,9.5-0.85,13.76-2.37c2.81,11.78,14.35,20.61,28.16,20.61c14.88,0,27.12-10.23,28.66-23.37
		c4.36,1.16,8.95,1.82,13.69,1.93c8.45,13.28,24.25,22.23,42.37,22.23c27.01,0,48.91-19.88,48.91-44.4c0-4.07-0.61-8-1.74-11.74
		c5.54-0.73,10.86-2.08,15.86-3.97c3.99,4.72,10.25,7.78,17.32,7.78c10.89,0,19.89-7.24,21.54-16.71c2.04,0.54,4.18,0.85,6.41,0.85
		c12.54,0,22.71-9.23,22.71-20.61c0-11.39-10.17-20.62-22.71-20.62c-1.65,0-3.25,0.17-4.8,0.47c0.28-2.24,0.43-4.51,0.43-6.81
		c0-33.28-29.72-60.26-66.38-60.26c-21.4,0-40.42,9.2-52.55,23.47c-5.68-12.83-19.5-21.89-35.66-21.89
		c-18.19,0-33.43,11.48-37.41,26.9c-5.58-1.5-11.5-2.32-17.62-2.32c-18.16,0-34.49,7.08-45.83,18.37
		c-6.69-6.42-16.16-10.44-26.67-10.44c-20.26,0-36.68,14.91-36.68,33.3c0,5.04,1.24,9.81,3.44,14.09
		C656.39,353.22,648.11,363.72,648.11,375.97z"/>
</g>
<g id="front">
	
		<animateTransform  accumulate="none" additive="replace" attributeName="transform" begin="0s" calcMode="linear" dur="32s" fill="freeze" id="startloop_front" repeatCount="1" restart="always" type="translate" values="0,0; -8500,0">
		</animateTransform>
	
		<animateTransform  accumulate="none" additive="replace" attributeName="transform" begin="startloop_front.end" calcMode="linear" dur="38s" fill="freeze" repeatCount="1000" restart="always" type="translate" values="1000,0; -8500,0">
		</animateTransform>
	
	<path id="front22" fill="url(#cloudy)" d="M8127.75,129.04
		c-7.45,0-13.94,3.67-17.46,9.11c-5.45-3.79-12.27-6.04-19.66-6.04c-8.54,0-16.31,3.01-22.1,7.91
		c-5.93-19.4-25.51-33.64-48.76-33.64c-4.93,0-9.68,0.65-14.18,1.84c-3.28-4.07-7.25-7.65-11.76-10.6
		c2.37-5.87,3.67-12.2,3.67-18.81c0-30.12-26.89-54.53-60.06-54.53c-21.11,0-39.67,9.9-50.38,24.85
		c-12.48-14.38-31.82-23.62-53.55-23.62c-15.25,0-29.33,4.55-40.69,12.23c-8.66-8.99-21.38-14.68-35.57-14.68
		c-18.7,0-34.86,9.87-42.51,24.17c-6.05-1.37-12.38-2.11-18.9-2.11c-42.19,0-76.5,30.58-77.56,68.65c-0.47-0.01-0.93-0.03-1.4-0.03
		c-25.53,0-47.33,14.47-56.02,34.87c-4.37-0.76-8.88-1.17-13.49-1.17c-2.99,0-5.92,0.19-8.81,0.51
		c-0.78-24.08-22.51-43.4-49.23-43.4c-27.21,0-49.27,20.03-49.27,44.72c0,1.74,0.12,3.46,0.33,5.14c-3.4-0.55-6.88-0.85-10.46-0.85
		c-10.61,0-20.56,2.54-29.18,6.96c-9.25-13.03-25.36-21.66-43.7-21.66c-5.25,0-10.32,0.72-15.09,2.03
		c-8.07-12.57-23.07-21.02-40.25-21.02c-25.72,0-46.56,18.93-46.56,42.27c0,0.97,0.05,1.94,0.12,2.9
		c-23.13,6.49-39.94,26.05-39.94,49.18c0,7.68,1.87,14.96,5.19,21.51c-11.63,3.43-20.04,13.35-20.04,25.05
		c0,14.55,12.99,26.34,29.02,26.34c8.15,0,15.51-3.06,20.78-7.97c8.14,21.74,30.8,37.38,57.5,37.38c19.89,0,37.55-8.68,48.63-22.1
		c9.69,7.3,22.14,11.69,35.72,11.69c10.18,0,19.73-2.48,27.96-6.8c11.55,21.78,36.09,36.82,64.5,36.82
		c25.95,0,48.67-12.54,61.21-31.32c12.35,9.23,28.17,14.77,45.42,14.77c21.18,0,40.2-8.36,53.3-21.64
		c10.3,8.13,23.75,13.06,38.48,13.06c11.54,0,22.29-3.04,31.37-8.26c9.98,13.12,26.66,21.73,45.56,21.73
		c13.76,0,26.33-4.57,36.01-12.11c8.13,3.44,17.19,5.37,26.75,5.37c35.03,0,63.44-25.78,63.44-57.59c0-0.83-0.03-1.65-0.07-2.47
		c0.25,0,0.49,0.01,0.74,0.01c31.28,0,58.87-14.32,75.28-36.12c3.56,0.78,7.28,1.2,11.11,1.2c18.91,0,35.21-10.08,42.76-24.64
		c1.26,0.08,2.52,0.14,3.81,0.14c18.16,0,34.09-8.69,43.01-21.73c5.65,8.61,16,14.38,27.85,14.38c16.51,0,30.12-11.21,32.13-25.7
		c1.6,0.37,3.26,0.58,4.99,0.58c11.18,0,20.25-8.22,20.25-18.38C8148,137.27,8138.93,129.04,8127.75,129.04z"/>

	<path id="front21" fill="url(#cloudy)" d="M6996.63,308.82
		c3.4,0,6.6-0.76,9.42-2.09c5.57,5.66,13.46,9.39,22.32,9.98c-0.93,2.54-1.45,5.25-1.45,8.08c0,14.21,12.69,25.72,28.34,25.72
		c9.48,0,17.86-4.24,23-10.74c1.41,0.33,2.84,0.62,4.29,0.86c11.04,17.06,31.44,28.51,54.8,28.51c1.34,0,2.66-0.05,3.98-0.12
		c1.45,25.77,24.93,46.25,53.67,46.25c20.05,0,37.52-9.97,46.76-24.74c6.4,8,16.77,13.21,28.49,13.21c12.68,0,23.79-6.1,29.99-15.23
		c18.18,17.56,43.98,28.54,72.62,28.54c30.39,0,57.58-12.36,75.86-31.82c14.4,13.59,34.62,22.06,57.04,22.06
		c42.29,0,76.82-30.11,79.04-67.99c5.79,2.08,12.09,3.23,18.69,3.23c23.51,0,43.29-14.5,49.09-34.19c5.1-1.71,9.71-4.35,13.59-7.68
		c6.3,9.66,17.88,16.14,31.14,16.14c15.94,0,29.46-9.37,34.27-22.37c5.41,2.94,11.74,4.62,18.5,4.62
		c19.97,0,36.16-14.69,36.16-32.82s-16.19-32.82-36.16-32.82c-6.83,0-13.22,1.72-18.67,4.71c-1.35-17.01-16.97-30.44-36.05-30.44
		c-19.97,0-36.15,14.7-36.15,32.83c0,0.85,0.05,1.69,0.12,2.53c-6.03-3.3-13.09-5.19-20.64-5.19c-2,0-3.98,0.13-5.9,0.39
		c0.01-0.43,0.04-0.85,0.04-1.29c0-22.53-20.13-40.81-44.95-40.81c-24.83,0-44.95,18.27-44.95,40.81c0,1.2,0.07,2.38,0.18,3.55
		c-0.06,0-0.12,0-0.18,0c-9.95,0-19.15,2.88-26.67,7.76c-6.57-33.16-38.49-58.33-76.91-58.33c-15.24,0-29.45,3.98-41.48,10.82
		c-21.08-29.48-57.65-48.97-99.24-48.97c-47.51,0-88.46,25.44-107.26,62.13c-0.4,0-0.8-0.03-1.21-0.03
		c-22.7,0-42.72,10.33-54.71,26.09c-11.07-8.52-25.4-13.68-41.06-13.68c-3.36,0-6.67,0.25-9.9,0.7c-3.91-3.71-9.4-6.03-15.5-6.03
		c-11.88,0-21.5,8.74-21.5,19.52c0,1.41,0.17,2.79,0.49,4.12c-3.87,3.76-7.18,7.99-9.84,12.58c-2.34-0.48-4.77-0.73-7.26-0.73
		c-12.57,0-23.5,6.33-29.15,15.67c-1.62-0.37-3.31-0.59-5.06-0.59c-11.34,0-20.52,8.34-20.52,18.63
		C6976.1,300.47,6985.29,308.82,6996.63,308.82z"/>

	<path id="front20" fill="url(#cloudy)" d="M7279.58,234.67
		c-7.33,0-13.72,3.61-17.18,8.96c-5.37-3.73-12.07-5.94-19.34-5.94c-8.4,0-16.04,2.96-21.74,7.79c-5.83-19.09-25.1-33.1-47.98-33.1
		c-4.85,0-9.53,0.64-13.95,1.81c-3.22-4-7.13-7.52-11.57-10.43c2.34-5.77,3.61-12,3.61-18.51c0-29.63-26.46-53.65-59.09-53.65
		c-20.77,0-39.02,9.74-49.56,24.45c-12.28-14.15-31.31-23.24-52.69-23.24c-15,0-28.86,4.47-40.03,12.04
		c-8.52-8.85-21.03-14.45-35-14.45c-18.39,0-34.29,9.71-41.82,23.78c-5.95-1.35-12.18-2.08-18.6-2.08
		c-41.51,0-75.27,30.08-76.31,67.54c-0.46-0.01-0.92-0.03-1.38-0.03c-25.12,0-46.56,14.24-55.11,34.3
		c-4.3-0.75-8.73-1.15-13.27-1.15c-2.94,0-5.83,0.19-8.67,0.5c-0.76-23.69-22.15-42.69-48.43-42.69c-26.77,0-48.47,19.7-48.47,44
		c0,1.71,0.12,3.4,0.33,5.06c-3.34-0.54-6.77-0.84-10.29-0.84c-10.44,0-20.23,2.5-28.71,6.85c-9.1-12.82-24.95-21.31-43-21.31
		c-5.17,0-10.15,0.7-14.85,1.99c-7.94-12.36-22.7-20.68-39.6-20.68c-25.3,0-45.81,18.62-45.81,41.59c0,0.96,0.05,1.91,0.12,2.85
		c-22.75,6.38-39.29,25.63-39.29,48.39c0,7.55,1.84,14.72,5.11,21.16c-11.44,3.38-19.71,13.13-19.71,24.65
		c0,14.31,12.79,25.92,28.55,25.92c8.02,0,15.26-3.01,20.45-7.84c8.01,21.38,30.3,36.77,56.57,36.77c19.57,0,36.95-8.54,47.85-21.74
		c9.54,7.18,21.79,11.5,35.15,11.5c10.02,0,19.41-2.44,27.51-6.69c11.36,21.43,35.51,36.22,63.46,36.22
		c25.53,0,47.88-12.34,60.22-30.81c12.15,9.08,27.72,14.53,44.69,14.53c20.84,0,39.55-8.22,52.44-21.29
		c10.14,8,23.37,12.85,37.86,12.85c11.36,0,21.93-2.99,30.86-8.12c9.82,12.91,26.23,21.38,44.83,21.38
		c13.54,0,25.91-4.49,35.43-11.91c8,3.38,16.91,5.28,26.32,5.28c34.47,0,62.41-25.37,62.41-56.66c0-0.82-0.03-1.62-0.06-2.43
		c0.24,0,0.48,0.01,0.73,0.01c30.78,0,57.92-14.09,74.06-35.54c3.51,0.77,7.16,1.18,10.92,1.18c18.6,0,34.64-9.92,42.07-24.25
		c1.24,0.08,2.48,0.14,3.74,0.14c17.87,0,33.54-8.55,42.32-21.38c5.56,8.47,15.74,14.15,27.39,14.15
		c16.24,0,29.64-11.03,31.61-25.29c1.57,0.36,3.21,0.57,4.91,0.57c11,0,19.92-8.09,19.92-18.08
		C7299.49,242.77,7290.58,234.67,7279.58,234.67z"/>

	<path id="front19" fill="url(#cloudy)" d="M6187.7,178.54
		c8.7,0,16.28-4.28,20.39-10.64c6.37,4.43,14.33,7.06,22.96,7.06c9.98,0,19.05-3.51,25.81-9.24c6.92,22.66,29.8,39.3,56.96,39.3
		c5.75,0,11.31-0.76,16.57-2.15c3.83,4.75,8.47,8.93,13.74,12.38c-2.77,6.85-4.29,14.25-4.29,21.97c0,35.18,31.41,63.69,70.16,63.69
		c24.66,0,46.33-11.56,58.85-29.03c14.58,16.8,37.17,27.59,62.55,27.59c17.81,0,34.26-5.31,47.53-14.29
		c10.12,10.51,24.97,17.15,41.55,17.15c21.84,0,40.71-11.52,49.66-28.23c7.07,1.6,14.46,2.47,22.08,2.47
		c49.29,0,89.36-35.71,90.59-80.19c0.55,0.01,1.09,0.03,1.64,0.03c29.82,0,55.28-16.9,65.43-40.73c5.11,0.89,10.37,1.37,15.76,1.37
		c3.49,0,6.92-0.22,10.29-0.6c0.91,28.13,26.3,50.69,57.5,50.69c31.78,0,57.55-23.39,57.55-52.24c0-2.03-0.14-4.03-0.39-6
		c3.97,0.64,8.04,0.99,12.21,0.99c12.39,0,24.01-2.96,34.09-8.13c10.8,15.22,29.62,25.31,51.05,25.31c6.13,0,12.05-0.83,17.63-2.37
		c9.43,14.68,26.95,24.55,47.01,24.55c30.04,0,54.39-22.11,54.39-49.38c0-1.14-0.06-2.27-0.14-3.38
		c27.02-7.58,46.65-30.43,46.65-57.45c0-8.97-2.18-17.48-6.06-25.12c13.58-4.01,23.4-15.59,23.4-29.26
		c0-16.99-15.18-30.77-33.9-30.77c-9.52,0-18.12,3.57-24.28,9.31c-9.51-25.39-35.98-43.66-67.16-43.66
		c-23.24,0-43.86,10.14-56.81,25.82c-11.32-8.53-25.87-13.65-41.73-13.65c-11.9,0-23.05,2.9-32.66,7.94
		c-13.49-25.44-42.16-43.01-75.34-43.01c-30.31,0-56.85,14.65-71.5,36.58c-14.43-10.78-32.91-17.25-53.05-17.25
		c-24.74,0-46.96,9.77-62.26,25.27c-12.04-9.5-27.75-15.26-44.95-15.26c-13.48,0-26.04,3.55-36.64,9.64
		c-11.66-15.33-31.14-25.39-53.22-25.39c-16.07,0-30.76,5.34-42.06,14.15c-9.5-4.01-20.08-6.27-31.25-6.27
		c-40.92,0-74.1,30.12-74.1,67.27c0,0.97,0.03,1.93,0.08,2.88c-0.29,0-0.57-0.02-0.87-0.02c-36.54,0-68.77,16.73-87.93,42.2
		c-4.16-0.91-8.5-1.4-12.97-1.4c-22.08,0-41.12,11.78-49.95,28.79c-1.47-0.1-2.95-0.16-4.44-0.16c-21.21,0-39.81,10.15-50.24,25.39
		c-6.6-10.06-18.69-16.8-32.53-16.8c-19.28,0-35.19,13.1-37.53,30.02c-1.86-0.43-3.82-0.68-5.83-0.68
		c-13.06,0-23.65,9.61-23.65,21.47C6164.05,168.93,6174.64,178.54,6187.7,178.54z"/>

	<path id="front17" fill="url(#cloudy)" d="M6134.32,112.36
		c0-13.87-12.38-25.11-27.66-25.11c-2.74,0-5.38,0.37-7.87,1.03c-4.99-8.68-14.99-14.61-26.53-14.61c-3.72,0-7.29,0.62-10.58,1.75
		c-4.95-2.83-10.81-4.47-17.09-4.47c-4.16,0-8.13,0.72-11.78,2.03c-2.4-10.08-12.28-17.64-24.11-17.64
		c-12.73,0-23.22,8.76-24.53,20.01c-3.73-0.99-7.66-1.56-11.72-1.65c-7.24-11.37-20.77-19.03-36.27-19.03
		c-23.13,0-41.88,17.02-41.88,38.01c0,3.48,0.53,6.85,1.49,10.05c-4.74,0.62-9.3,1.78-13.58,3.4c-3.42-4.04-8.78-6.66-14.83-6.66
		c-9.32,0-17.03,6.2-18.44,14.3c-1.74-0.47-3.58-0.73-5.49-0.73c-10.74,0-19.44,7.9-19.44,17.65s8.7,17.65,19.44,17.65
		c1.41,0,2.79-0.14,4.11-0.4c-0.24,1.92-0.37,3.86-0.37,5.83c0,28.49,25.44,51.59,56.83,51.59c18.32,0,34.6-7.88,44.99-20.1
		c4.86,10.98,16.7,18.74,30.53,18.74c15.58,0,28.62-9.83,32.03-23.03c4.78,1.28,9.84,1.98,15.08,1.98
		c15.54,0,29.53-6.06,39.23-15.73c5.73,5.5,13.84,8.94,22.83,8.94c17.34,0,31.4-12.77,31.4-28.51c0-4.31-1.06-8.4-2.95-12.06
		C6127.24,131.84,6134.32,122.85,6134.32,112.36z"/>

	<path id="front14" fill="url(#cloudy)" d="M4969.62,185.33
		c-6.24,1.89-10.75,7.23-10.75,13.53c0,7.88,7.04,14.27,15.72,14.27c1.56,0,3.07-0.22,4.5-0.6c4.91,6.81,13.38,11.31,23.01,11.31
		c3.53,0,6.88-0.63,9.98-1.72c4.74,26.6,30.13,46.92,60.77,46.92c34.01,0,61.58-25.03,61.58-55.9c0-3.44-0.36-6.81-1.02-10.08
		c3.71-1.21,7.23-2.77,10.51-4.65c7.92,8.97,20.09,14.73,33.74,14.73c0.92,0,1.82-0.04,2.72-0.09c9.45,18.98,30.48,32.2,54.93,32.2
		c3.11,0,6.17-0.22,9.15-0.63c7.15,11.72,20.9,19.66,36.7,19.66c10.83,0,20.7-3.72,28.14-9.84c6.94,11.09,18.42,19.53,32.15,23.23
		c-0.86,2.94-1.33,6.03-1.33,9.22c0,19.7,17.6,35.68,39.3,35.68c21.71,0,39.3-15.97,39.3-35.68c0-2.88-0.39-5.68-1.1-8.36
		c3.62-0.14,7.1-0.77,10.36-1.83c0.95,9.71,9.92,17.33,20.87,17.33h0.06c0.68,9.96,9.76,17.84,20.9,17.84
		c11.58,0,20.96-8.52,20.96-19.03s-9.39-19.03-20.96-19.03c-0.02,0-0.04,0-0.06,0c-0.66-9.64-9.21-17.32-19.88-17.8
		c1.04-3.02,1.6-6.23,1.6-9.56c0-17.74-15.84-32.12-35.38-32.12c-2.19,0-4.34,0.2-6.43,0.54c-5.61-16.29-20.16-28.99-38.44-33.37
		c1.06-3.57,1.63-7.31,1.63-11.17c0-23.65-21.12-42.82-47.17-42.82c-2.29,0-4.54,0.16-6.74,0.44
		c-6.39-26.77-32.61-46.83-64.01-46.83c-34.55,0-62.83,24.28-65.31,55.06c-3.81-1-7.83-1.54-11.99-1.54
		c-4.29,0-8.44,0.58-12.35,1.64c-8.44-17.75-27.89-30.18-50.53-30.18c-30.39,0-55.03,22.36-55.03,49.95c0,0.83,0.02,1.64,0.07,2.46
		c-3.39,0.66-6.68,1.59-9.84,2.73c-4-9.3-13.95-15.89-25.61-15.89c-6.11,0-11.73,1.83-16.3,4.89c-5.03-5.86-12.86-9.65-21.69-9.65
		c-15.19,0-27.51,11.18-27.51,24.98C4958.88,173.62,4963.1,180.76,4969.62,185.33z"/>

	<path id="front12" fill="url(#cloudy)" d="M4683.95,315.97
		c8.41,0,15.6-4.69,18.59-11.35c6.18,7.83,16.28,12.93,27.7,12.93c9.65,0,18.36-3.65,24.56-9.51c1.27,16.25,15.38,29.29,33.18,30.77
		c6.1,10.02,17.85,16.8,31.36,16.8c17.01,0,31.24-10.77,34.89-25.2c5.73,13.8,20.4,23.62,37.61,23.62c1.84,0,3.65-0.12,5.42-0.34
		c-0.11,1.16-0.18,2.33-0.18,3.51c0,18.58,14.08,34.17,33.07,38.47c-6.89,5.52-11.24,13.59-11.24,22.59
		c0,16.64,14.86,30.13,33.19,30.13c10.89,0,20.55-4.76,26.6-12.11c4.95,5.36,10.87,9.96,17.52,13.56
		c2.42,12.68,14.59,22.33,29.25,22.33c12.33,0,22.9-6.82,27.39-16.53c27.7-8.15,47.73-31.74,47.73-59.59c0-6.36-1.06-12.5-3-18.29
		c4.75,1.57,9.88,2.43,15.22,2.43c24.6,0,44.54-18.1,44.54-40.44c0-0.3-0.02-0.6-0.03-0.9c15.19-1.19,27.1-12.76,27.1-26.85
		c0-1.11-0.08-2.2-0.23-3.28c2.59,0.59,5.3,0.91,8.09,0.91c8.87,0,16.91-3.16,22.86-8.3c6.57,5.63,15.43,9.09,25.18,9.09
		c4.04,0,7.92-0.6,11.56-1.69c0.79,0.07,1.6,0.11,2.41,0.11c13.99,0,25.33-10.29,25.33-22.99c0-3.67-0.98-7.13-2.66-10.21
		c-0.03-0.55-0.07-1.09-0.12-1.63c1.41,0.48,2.94,0.75,4.53,0.75c7.24,0,13.1-5.33,13.1-11.89c0-6.57-5.86-11.89-13.1-11.89
		c-5.02,0-9.38,2.57-11.58,6.34c-6.68-8.17-17.4-13.47-29.47-13.47c-11.19,0-21.2,4.55-27.92,11.72
		c-5.58-3.87-12.55-6.17-20.12-6.17c-3.36,0-6.6,0.46-9.66,1.3c-7.75-9.9-20.48-16.37-34.89-16.37c-15.83,0-29.65,7.81-37.05,19.42
		c-8.52-6.19-19.32-9.9-31.08-9.9c-10.15,0-19.58,2.76-27.46,7.5c-8.41-14.81-25.42-24.94-45.04-24.94
		c-12.01,0-23.05,3.81-31.73,10.15c-4.62-1.6-9.56-2.6-14.72-2.91c-1.7-16.52-17-29.45-35.64-29.45c-14.15,0-26.38,7.45-32.19,18.26
		c-0.33-0.01-0.67-0.02-1-0.02c-12.52,0-23.37,6.46-28.74,15.91c-3.14-0.55-6.38-0.85-9.69-0.85c-11.11,0-21.38,3.26-29.74,8.77
		c-10.05,0.31-18.65,5.76-22.74,13.55c-3.46-12.81-16.19-22.32-31.38-22.32c-13.97,0-25.87,8.05-30.38,19.32
		c-2.84-0.7-5.83-1.08-8.92-1.08c-17.62,0-32.11,12.14-33.88,27.7c-3.42-2.44-7.72-3.91-12.41-3.91c-11.09,0-20.09,8.17-20.09,18.24
		C4663.86,307.81,4672.86,315.97,4683.95,315.97z"/>

	<path id="front11" fill="url(#cloudy)" d="M4450.32,411.27
		c0-13.87-12.38-25.11-27.66-25.11c-2.74,0-5.38,0.37-7.87,1.03c-4.99-8.68-14.99-14.61-26.53-14.61c-3.72,0-7.29,0.62-10.58,1.75
		c-4.95-2.83-10.81-4.47-17.09-4.47c-4.16,0-8.13,0.72-11.78,2.03c-2.4-10.08-12.28-17.64-24.11-17.64
		c-12.73,0-23.22,8.76-24.53,20.01c-3.73-0.99-7.66-1.56-11.72-1.65c-7.24-11.37-20.77-19.03-36.27-19.03
		c-23.13,0-41.88,17.02-41.88,38.01c0,3.48,0.53,6.85,1.49,10.05c-4.74,0.62-9.3,1.78-13.58,3.4c-3.42-4.04-8.78-6.66-14.83-6.66
		c-9.32,0-17.03,6.2-18.44,14.3c-1.74-0.47-3.58-0.73-5.49-0.73c-10.74,0-19.44,7.9-19.44,17.65s8.7,17.65,19.44,17.65
		c1.41,0,2.79-0.14,4.11-0.4c-0.24,1.92-0.37,3.86-0.37,5.83c0,28.49,25.44,51.59,56.83,51.59c18.32,0,34.6-7.88,44.99-20.1
		c4.86,10.98,16.7,18.74,30.53,18.74c15.58,0,28.62-9.83,32.03-23.03c4.78,1.28,9.84,1.98,15.08,1.98
		c15.54,0,29.53-6.06,39.23-15.73c5.73,5.5,13.84,8.94,22.83,8.94c17.34,0,31.4-12.77,31.4-28.51c0-4.31-1.06-8.4-2.95-12.06
		C4443.24,430.75,4450.32,421.76,4450.32,411.27z"/>
	
	<path id="front10" fill="url(#cloudy)" d="M4743.23,294.5
		c-2.91,0-5.65,0.65-8.07,1.79c-4.77-4.85-11.52-8.04-19.11-8.55c0.8-2.18,1.24-4.5,1.24-6.91c0-12.16-10.86-22.02-24.26-22.02
		c-8.12,0-15.29,3.63-19.69,9.2c-1.2-0.28-2.43-0.52-3.67-0.73c-9.45-14.6-26.91-24.41-46.91-24.41c-1.15,0-2.28,0.04-3.41,0.11
		c-1.25-22.06-21.34-39.6-45.95-39.6c-17.16,0-32.12,8.54-40.03,21.18c-5.48-6.85-14.36-11.31-24.39-11.31
		c-10.86,0-20.37,5.22-25.67,13.04c-15.57-15.03-37.65-24.44-62.17-24.44c-26.01,0-49.29,10.58-64.95,27.24
		c-12.33-11.64-29.64-18.89-48.83-18.89c-36.2,0-65.77,25.77-67.66,58.21c-4.95-1.78-10.35-2.77-16-2.77
		c-20.13,0-37.06,12.41-42.02,29.27c-4.37,1.47-8.31,3.72-11.63,6.57c-5.39-8.27-15.3-13.82-26.66-13.82
		c-13.64,0-25.22,8.02-29.34,19.15c-4.63-2.51-10.05-3.96-15.84-3.96c-17.1,0-30.95,12.58-30.95,28.1s13.86,28.1,30.95,28.1
		c5.85,0,11.32-1.48,15.99-4.03c1.15,14.57,14.52,26.06,30.86,26.06c17.1,0,30.95-12.58,30.95-28.11c0-0.73-0.04-1.45-0.1-2.17
		c5.16,2.82,11.21,4.45,17.67,4.45c1.71,0,3.4-0.11,5.05-0.34c-0.01,0.36-0.03,0.73-0.03,1.1c0,19.29,17.23,34.94,38.48,34.94
		s38.48-15.64,38.48-34.94c0-1.03-0.06-2.04-0.15-3.04c0.05,0,0.1,0,0.15,0c8.52,0,16.39-2.46,22.83-6.64
		c5.63,28.39,32.96,49.94,65.85,49.94c13.05,0,25.22-3.4,35.51-9.27c18.05,25.23,49.35,41.92,84.96,41.92
		c40.67,0,75.73-21.78,91.83-53.19c0.34,0,0.69,0.02,1.04,0.02c19.43,0,36.57-8.85,46.84-22.34c9.48,7.3,21.74,11.71,35.15,11.71
		c2.88,0,5.71-0.21,8.47-0.6c3.35,3.17,8.05,5.16,13.28,5.16c10.17,0,18.41-7.48,18.41-16.71c0-1.21-0.15-2.39-0.42-3.53
		c3.31-3.22,6.15-6.84,8.42-10.77c2.01,0.41,4.08,0.63,6.22,0.63c10.76,0,20.12-5.42,24.95-13.42c1.39,0.32,2.83,0.51,4.33,0.51
		c9.71,0,17.57-7.14,17.57-15.95C4760.8,301.64,4752.94,294.5,4743.23,294.5z"/>
	
	<path id="front9" fill="url(#cloudy)" d="M4201,95.55
		c15.09,0,28.08-8.19,33.87-19.94c8.98,6.07,19.59,10.25,31.12,11.92c-0.04,0.67-0.06,1.34-0.06,2.01
		c0,20.26,18.09,36.69,40.41,36.69c8.75,0,16.85-2.54,23.46-6.83c4.45,16.21,17.85,29.2,35.15,34.42
		c5.66,31.43,35.7,55.42,71.92,55.42c10.2,0,19.91-1.91,28.73-5.34c5.41,6.87,14.26,11.36,24.28,11.36c2.47,0,4.87-0.28,7.17-0.79
		c-1.21,4.09-1.86,8.39-1.86,12.82c0,27.24,24.32,49.32,54.33,49.32c2.39,0,4.75-0.16,7.06-0.43c-0.28,1.91-0.44,3.86-0.44,5.84
		c0,1.92,0.15,3.8,0.41,5.66c-8.68,2.42-14.99,9.74-14.99,18.41c0,10.63,9.49,19.25,21.2,19.25c6.11,0,11.61-2.36,15.47-6.12
		c7.73,4.62,16.98,7.32,26.93,7.32c3.13,0,6.2-0.28,9.17-0.79c5.4,10.42,17.06,17.63,30.59,17.63c18.67,0,33.79-13.74,33.79-30.68
		c0-6.6-2.3-12.71-6.21-17.72c17.24-9.63,28.74-26.92,28.74-46.65c0-10.08-3.02-19.53-8.25-27.63c8.82-6.25,14.93-15.49,16.48-26.04
		c8.93-3.08,17.21-7.36,24.6-12.62c4.79,7.62,13.81,12.77,24.17,12.77c15.37,0,27.83-11.31,27.83-25.26c0-3.23-0.69-6.3-1.91-9.14
		c5.17,1.62,10.7,2.52,16.48,2.52c14.78,0,28.08-5.79,37.3-15c8.67,8.13,20.81,13.19,34.26,13.19c10.04,0,19.34-2.82,27.03-7.63
		c8.4,10.8,22.24,17.85,37.91,17.85c25.61,0,46.38-18.85,46.38-42.1c0-2.74-0.3-5.4-0.85-7.99c20.18-1.73,35.96-17.15,35.96-35.92
		c0-19.94-17.8-36.09-39.76-36.09c-15.74,0-29.34,8.31-35.78,20.35c-5.1-5.45-12.7-8.92-21.2-8.92c-2.36,0-4.64,0.29-6.83,0.79
		c0.56-2.79,0.86-5.67,0.86-8.62c0-26.57-23.73-48.12-53.01-48.12c-25.73,0-47.18,16.65-51.99,38.73
		c-8.85-4.73-19.16-7.44-30.17-7.44c-6.53,0-12.82,0.96-18.7,2.73c2.22-4.93,3.46-10.31,3.46-15.97c0-23.26-20.77-42.11-46.38-42.11
		c-1.78,0-3.55,0.1-5.28,0.28c1.28-3.7,1.97-7.63,1.97-11.71c0-21.59-19.28-39.1-43.07-39.1c-7.44,0-14.43,1.71-20.53,4.72
		c-7.95-2.28-16.41-3.52-25.19-3.52c-13.36,0-25.98,2.86-37.18,7.93c-11.79-12.58-29.34-20.57-48.96-20.57
		c-24.82,0-46.34,12.78-57.04,31.47c-30.04,1.99-55.02,20.48-63.97,45.55c-9.26-3.51-19.41-5.44-30.06-5.44
		c-16.95,0-32.61,4.91-45.42,13.23c-9.42-25.51-35.94-43.91-67.22-43.91c-39.16,0-70.9,28.82-70.9,64.36c0,1.54,0.08,3.07,0.2,4.58
		c-1.79-0.24-3.63-0.37-5.49-0.37c-20.5,0-37.11,15.08-37.11,33.69C4163.89,80.47,4180.51,95.55,4201,95.55z"/>
	
	<path id="front7" fill="url(#cloudy)" d="M2946.61,273.6
		c0.05,0,0.1,0,0.15,0c-6.48,5.84-10.49,13.93-10.49,22.87c0,17.82,15.91,32.26,35.53,32.26s35.53-14.44,35.53-32.26
		c0-0.68-0.03-1.36-0.08-2.03c4.67,2.77,10.24,4.38,16.23,4.38c8.89,0,16.86-3.55,22.31-9.17c6.26,6.35,15.36,10.34,25.49,10.34
		c9.1,0,17.37-3.23,23.5-8.49c8.24,12.46,23.28,20.8,40.46,20.8c26.04,0,47.16-19.17,47.16-42.81c0-2.73-0.29-5.4-0.83-7.98
		c12.35-5.4,20.86-16.86,20.86-30.13c0-18.46-16.49-33.43-36.83-33.43c-6.63,0-12.84,1.6-18.22,4.39
		c-5.39-20.35-25.55-35.47-49.61-35.47c-3.11,0-6.14,0.27-9.09,0.75c-10.13-14.21-27.72-23.62-47.75-23.62
		c-31.4,0-56.85,23.11-56.85,51.61c0,3.68,0.43,7.26,1.24,10.72c-10.43,3.36-18.7,10.87-22.39,20.35
		c-4.62-2.95-10.24-4.68-16.32-4.68c-15.7,0-28.42,11.55-28.42,25.8C2918.19,262.05,2930.91,273.6,2946.61,273.6z"/>
	
	<path id="front6" fill="url(#cloudy)" d="M2827.56,155.89
		c3.12,0,6.1,0.57,8.82,1.57c6.76-7.3,16.81-11.99,28.08-12.19c0.84-8.94,9.09-15.97,19.16-15.97c6.13,0,11.58,2.61,15.1,6.66
		c8.21-6.06,18.67-9.7,30.08-9.7c9.92,0,19.12,2.75,26.75,7.45c10.11-10.17,24.74-16.57,41.01-16.57c9.24,0,17.95,2.07,25.6,5.72
		c5.16-22.33,24.72-39.84,49.45-44.17c-0.4-2.32-0.6-4.7-0.6-7.12c0-25.59,22.85-46.33,51.03-46.33c7.89,0,15.36,1.63,22.03,4.53
		c-1.26-3.33-1.95-6.89-1.95-10.6c0-18.04,16.11-32.66,35.98-32.66c15.58,0,28.85,8.99,33.84,21.58c2.07-0.2,4.18-0.31,6.31-0.31
		c31.48,0,57.15,22.56,58.5,50.84c29,4.15,51.47,26.09,53.45,53.13c14.43,6.21,24.42,19.55,24.42,35.02c0,0.09-0.01,0.18-0.01,0.27
		c6.72-8.01,17.34-13.18,29.29-13.18c20.33,0,36.81,14.96,36.81,33.42c0,18.45-16.48,33.42-36.81,33.42
		c-4.31,0-8.45-0.68-12.29-1.92c-6.05,13.17-20.37,22.42-37.07,22.42c-7.24,0-14.02-1.75-19.89-4.79
		c-4.34,27.61-30.48,48.84-62.1,48.84c-6.12,0-12.02-0.81-17.61-2.29c-11.34,12.96-28.84,21.28-48.49,21.28
		c-25.7,0-47.74-14.22-57.1-34.46c-6.88,2.63-14.44,4.08-22.37,4.08c-15.57,0-29.68-5.6-40.07-14.7
		c-10.3,8.2-23.8,13.18-38.58,13.18c-27.49,0-50.56-17.21-56.85-40.41c-4.81-2.23-9.23-5.08-13.1-8.45
		c-8.13,5.86-18.41,9.37-29.6,9.37c-13.15,0-25.06-4.83-33.69-12.65c-6.88,8.15-17.71,13.41-29.89,13.41
		c-13.38,0-25.12-6.34-31.8-15.89c-1.87,0.44-3.82,0.69-5.85,0.69c-12.93,0-23.42-9.52-23.42-21.26S2814.63,155.89,2827.56,155.89z"
		/>
	
	<path id="front5" fill="url(#cloudy)" d="M3169.98,298.54
		c-12.92,0-24.04,7.01-29,17.07c-7.68-5.2-16.77-8.78-26.64-10.2c0.03-0.57,0.05-1.14,0.05-1.72c0-17.35-15.49-31.42-34.6-31.42
		c-7.49,0-14.42,2.17-20.09,5.84c-3.81-13.88-15.28-25-30.09-29.47c-4.85-26.91-30.56-47.44-61.57-47.44
		c-8.73,0-17.05,1.64-24.59,4.58c-4.63-5.89-12.21-9.72-20.78-9.72c-2.12,0-4.17,0.24-6.14,0.68c1.04-3.5,1.6-7.18,1.6-10.98
		c0-23.32-20.82-42.23-46.52-42.23c-2.05,0-4.06,0.13-6.04,0.37c0.24-1.64,0.37-3.3,0.37-5c0-1.64-0.13-3.25-0.35-4.84
		c7.43-2.07,12.83-8.34,12.83-15.76c0-9.1-8.13-16.48-18.15-16.48c-5.23,0-9.93,2.02-13.25,5.24c-6.62-3.96-14.54-6.27-23.06-6.27
		c-2.68,0-5.31,0.24-7.85,0.67c-4.62-8.92-14.61-15.09-26.18-15.09c-15.98,0-28.93,11.76-28.93,26.27c0,5.65,1.97,10.88,5.32,15.16
		c-14.76,8.25-24.61,23.04-24.61,39.93c0,8.63,2.58,16.72,7.07,23.66c-7.55,5.34-12.78,13.26-14.1,22.3
		c-7.65,2.64-14.73,6.3-21.06,10.81c-4.1-6.52-11.82-10.93-20.69-10.93c-13.16,0-23.82,9.68-23.82,21.63c0,2.76,0.59,5.39,1.63,7.82
		c-4.42-1.39-9.16-2.16-14.11-2.16c-12.66,0-24.04,4.95-31.93,12.84c-7.42-6.96-17.82-11.3-29.34-11.3
		c-8.59,0-16.56,2.42-23.14,6.53c-7.19-9.25-19.04-15.29-32.45-15.29c-21.93,0-39.71,16.14-39.71,36.05c0,2.34,0.26,4.62,0.72,6.84
		c-17.27,1.48-30.79,14.68-30.79,30.75c0,17.07,15.24,30.9,34.04,30.9c13.47,0,25.12-7.11,30.63-17.42
		c4.37,4.67,10.87,7.63,18.15,7.63c2.02,0,3.97-0.25,5.84-0.68c-0.48,2.39-0.74,4.86-0.74,7.38c0,22.75,20.32,41.2,45.38,41.2
		c22.03,0,40.39-14.25,44.51-33.15c7.58,4.05,16.4,6.37,25.83,6.37c5.59,0,10.97-0.83,16.01-2.34c-1.91,4.22-2.96,8.83-2.96,13.67
		c0,19.91,17.77,36.05,39.71,36.05c1.53,0,3.04-0.09,4.52-0.24c-1.09,3.17-1.68,6.53-1.68,10.02c0,18.49,16.51,33.47,36.87,33.47
		c6.36,0,12.35-1.46,17.58-4.04c6.81,1.95,14.05,3.01,21.56,3.01c11.44,0,22.24-2.45,31.83-6.79
		c10.09,10.77,25.12,17.61,41.91,17.61c21.25,0,39.67-10.94,48.84-26.95c25.72-1.7,47.1-17.54,54.77-39
		c7.92,3,16.61,4.66,25.74,4.66c14.51,0,27.92-4.2,38.89-11.32c8.06,21.84,30.77,37.59,57.54,37.59c33.52,0,60.7-24.67,60.7-55.1
		c0-1.32-0.07-2.63-0.17-3.92c1.53,0.21,3.11,0.31,4.7,0.31c17.55,0,31.77-12.91,31.77-28.84S3187.52,298.54,3169.98,298.54z"/>
	
	<path id="front4" fill="url(#cloudy)" d="M2640.12,88.11
		c-3.65,0-7.12,0.66-10.3,1.84c-7.89-8.53-19.63-14-32.8-14.24c-0.98-10.45-10.61-18.65-22.37-18.65c-7.16,0-13.52,3.04-17.64,7.78
		c-9.58-7.08-21.8-11.33-35.13-11.33c-11.58,0-22.34,3.21-31.25,8.71c-11.8-11.88-28.89-19.35-47.9-19.35
		c-10.8,0-20.97,2.42-29.91,6.68c-6.03-26.08-28.88-46.53-57.77-51.59c0.46-2.71,0.7-5.49,0.7-8.32c0-29.89-26.69-54.12-59.61-54.12
		c-9.22,0-17.94,1.9-25.73,5.29c1.47-3.88,2.28-8.05,2.28-12.39c0-21.07-18.81-38.14-42.02-38.14c-18.2,0-33.7,10.51-39.53,25.2
		c-2.43-0.23-4.88-0.36-7.37-0.36c-36.78,0-66.76,26.35-68.33,59.38c-33.87,4.85-60.12,30.48-62.43,62.06
		c-16.86,7.26-28.52,22.84-28.52,40.9c0,0.11,0.01,0.21,0.01,0.32c-7.85-9.35-20.25-15.4-34.21-15.4c-23.74,0-43,17.48-43,39.04
		c0,21.55,19.25,39.03,43,39.03c5.03,0,9.87-0.79,14.36-2.24c7.07,15.38,23.79,26.19,43.3,26.19c8.45,0,16.38-2.04,23.23-5.59
		c5.07,32.25,35.61,57.05,72.53,57.05c7.15,0,14.04-0.95,20.57-2.68c13.25,15.14,33.69,24.85,56.63,24.85
		c30.02,0,55.76-16.61,66.7-40.25c8.04,3.07,16.87,4.77,26.14,4.77c18.19,0,34.67-6.55,46.8-17.17c12.04,9.58,27.79,15.4,45.06,15.4
		c32.11,0,59.05-20.1,66.41-47.2c5.63-2.61,10.78-5.94,15.3-9.87c9.5,6.84,21.51,10.94,34.57,10.94c15.36,0,29.28-5.65,39.35-14.78
		c8.04,9.52,20.68,15.67,34.92,15.67c15.63,0,29.34-7.41,37.14-18.56c2.19,0.51,4.47,0.81,6.84,0.81
		c15.11,0,27.36-11.12,27.36-24.84C2667.48,99.23,2655.23,88.11,2640.12,88.11z"/>
	
	<path id="front3" fill="url(#cloudy)" d="M1467.95,432.38
		c8.41,0,15.6-4.69,18.59-11.35c6.18,7.83,16.28,12.93,27.7,12.93c9.65,0,18.36-3.65,24.56-9.51c1.27,16.25,15.38,29.29,33.18,30.77
		c6.1,10.02,17.85,16.8,31.36,16.8c17.01,0,31.24-10.77,34.89-25.2c5.73,13.8,20.4,23.62,37.61,23.62c1.84,0,3.65-0.12,5.42-0.34
		c-0.11,1.16-0.18,2.33-0.18,3.51c0,18.58,14.08,34.17,33.07,38.47c-6.89,5.52-11.24,13.59-11.24,22.59
		c0,16.64,14.86,30.13,33.19,30.13c10.89,0,20.55-4.76,26.6-12.11c4.95,5.36,10.87,9.96,17.52,13.56
		c2.42,12.68,14.59,22.33,29.25,22.33c12.33,0,22.9-6.82,27.39-16.53c27.7-8.15,47.73-31.74,47.73-59.59c0-6.36-1.06-12.5-3-18.29
		c4.75,1.57,9.88,2.43,15.22,2.43c24.6,0,44.54-18.1,44.54-40.44c0-0.3-0.02-0.6-0.03-0.9c15.19-1.19,27.1-12.76,27.1-26.85
		c0-1.11-0.08-2.2-0.23-3.28c2.59,0.59,5.3,0.91,8.09,0.91c8.87,0,16.91-3.16,22.86-8.3c6.57,5.63,15.43,9.09,25.18,9.09
		c4.04,0,7.92-0.6,11.56-1.69c0.79,0.07,1.6,0.11,2.41,0.11c13.99,0,25.33-10.29,25.33-22.99c0-3.67-0.98-7.13-2.66-10.21
		c-0.03-0.55-0.07-1.09-0.12-1.63c1.41,0.48,2.94,0.75,4.53,0.75c7.24,0,13.1-5.33,13.1-11.89c0-6.57-5.86-11.89-13.1-11.89
		c-5.02,0-9.38,2.57-11.58,6.34c-6.68-8.17-17.4-13.47-29.47-13.47c-11.19,0-21.2,4.55-27.92,11.72
		c-5.58-3.87-12.55-6.17-20.12-6.17c-3.36,0-6.6,0.46-9.66,1.3c-7.75-9.9-20.48-16.37-34.89-16.37c-15.83,0-29.65,7.81-37.05,19.42
		c-8.52-6.19-19.32-9.9-31.08-9.9c-10.15,0-19.58,2.76-27.46,7.5c-8.41-14.81-25.42-24.94-45.04-24.94
		c-12.01,0-23.05,3.81-31.73,10.15c-4.62-1.6-9.56-2.6-14.72-2.91c-1.7-16.52-17-29.45-35.64-29.45c-14.15,0-26.38,7.45-32.19,18.26
		c-0.33-0.01-0.67-0.02-1-0.02c-12.52,0-23.37,6.46-28.74,15.91c-3.14-0.55-6.38-0.85-9.69-0.85c-11.11,0-21.38,3.26-29.74,8.77
		c-10.05,0.31-18.65,5.76-22.74,13.55c-3.46-12.81-16.19-22.32-31.38-22.32c-13.97,0-25.87,8.05-30.38,19.32
		c-2.84-0.7-5.83-1.08-8.92-1.08c-17.62,0-32.11,12.14-33.88,27.7c-3.42-2.44-7.72-3.91-12.41-3.91c-11.09,0-20.09,8.17-20.09,18.24
		C1447.86,424.22,1456.86,432.38,1467.95,432.38z"/>
	
	<path id="front2" fill="url(#cloudy)" d="M1447.69,219.57
		c0,13.61,12.15,24.65,27.15,24.65c0.14,0,0.27-0.02,0.41-0.02c6.26,12.34,20,20.9,35.94,20.9c2.56,0,5.06-0.23,7.49-0.65
		c-0.08,0.91-0.13,1.82-0.13,2.74c0,19.84,17.72,35.92,39.57,35.92c15.99,0,29.75-8.61,35.99-20.99c7.08,6.02,16.59,9.72,27.05,9.72
		c21.02,0,38.21-14.89,39.48-33.69c1.23,0.16,2.48,0.26,3.76,0.26c15,0,27.15-11.04,27.15-24.65c0-1.87-0.25-3.68-0.68-5.43
		c3.3,0.81,6.77,1.25,10.34,1.25c21.86,0,39.57-16.09,39.57-35.93s-17.71-35.92-39.57-35.92c-3.23,0-6.37,0.36-9.37,1.02
		c-1.5-12.32-13-21.91-26.97-21.91c-10.79,0-20.08,5.73-24.46,14c-7.16-8.27-18.27-13.59-30.76-13.59c-6.01,0-11.7,1.24-16.78,3.43
		c-3.41-16.69-19.53-29.33-38.9-29.33c-21.86,0-39.57,16.08-39.57,35.92c0,3.3,0.5,6.5,1.42,9.53c-3.54,1.98-6.54,4.68-8.75,7.88
		c-3.95-2.03-8.5-3.21-13.37-3.21c-14.99,0-27.14,11.03-27.14,24.65c0,3.35,0.74,6.54,2.07,9.45
		C1456.63,198.15,1447.69,207.9,1447.69,219.57z"/>
	
	<path id="front1" fill="url(#cloudy)" d="M1394.08,323.19
		c-7.42,0-14.26,2.26-19.74,6.05c-8.75-18.3-28.83-31.11-52.2-31.11c-23.09,0-42.95,12.49-51.87,30.43
		c-6.13-5.21-14.37-8.41-23.43-8.41c-13.73,0-25.57,7.33-31.05,17.9c-8.02-3.67-17.08-5.75-26.68-5.75
		c-32.81,0-59.4,24.14-59.4,53.93c0,29.78,26.6,53.92,59.4,53.92c16.87,0,32.09-6.4,42.9-16.65c6.62,3.35,14.24,5.26,22.35,5.26
		c3.54,0,6.97-0.37,10.28-1.06c6.34,15.69,22.94,26.88,42.42,26.88c24.95,0,45.17-18.36,45.17-41.01c0-6.35-1.59-12.36-4.42-17.72
		c0.36-0.17,0.72-0.33,1.08-0.5c2.58,0.97,5.4,1.52,8.36,1.52c11.3,0,20.58-7.82,21.65-17.82c4.53,2.16,9.69,3.4,15.16,3.4
		c18.02,0,32.63-13.26,32.63-29.62C1426.71,336.46,1412.11,323.19,1394.08,323.19z"/>
</g>
   
</svg>
