<?xml version="1.0" encoding="utf-8"?>
<!-- (c) Jan Mirus  -->
<svg version="1.1" id="Ebene_1" xmlns="http://www.w3.org/2000/svg" xmlns:xlink="http://www.w3.org/1999/xlink" x="0px" y="0px"
	 viewBox="0 0 113.4 64" style="enable-background:new 0 0 113.4 64;" xml:space="preserve">
<style type="text/css">
	.st0{fill:#FFFFFF;}
</style>
<g id="Layer_1">
</g>
<g id="_x30_">
	<g>
		<path class="st0" d="M14.9,17.5c-1.8,0-7.3,0.3-7.3,0.3c-0.1,0-0.1,0.1,0,0.1c0,0,5.5,0.1,7.3,0.2c12.3,0.2,44.9,0.4,56.1,0.4
			c-0.2-0.7-0.2-1.4-0.1-2C59.6,16.6,27.2,17.2,14.9,17.5z"/>
		<path class="st0" d="M95.5,10.4c-3.5-5.7-11-7.5-16.7-4.1c-0.1,0-0.2,0.1-0.2,0.1c-1.3,0.8-2.4,1.9-3.3,3
			c-1.3,1.8-2.2,3.9-2.4,6.1c-0.1,1.1-0.1,2.3,0.1,3.4c0.3,1.5,0.8,3,1.7,4.4c0.4,0.6,0.8,1.2,1.3,1.7c1.2,1.4,2.7,2.5,4.4,3.1
			c3.5,1.5,7.7,1.3,11.3-0.9C97.3,23.7,99.1,16.1,95.5,10.4z M90.3,17.7c-1.4,0.9-3.6-0.1-5-2.3s-1.3-4.6,0.1-5.5
			c1.4-0.9,3.6,0.1,5,2.3C91.7,14.3,91.7,16.8,90.3,17.7z M93.2,11.7c-1.2-1.9-1.9-3.7-1.4-4s1.8,1,3.1,2.9c1.2,1.9,1.9,3.7,1.4,4
			C95.8,14.8,94.4,13.6,93.2,11.7z"/>
		<g>
			<g>
				<path class="st0" d="M27.1,63.9c-1,0-1.8-0.1-1.8-1.1v-12c0-2.6-0.7-4.3-3.7-4.3c-2.3,0-3.9,1.1-4.7,2.6c0,0.4,0.1,0.9,0.1,1.4
					v12.3c0,1-0.8,1.1-1.8,1.1s-1.8-0.1-1.8-1.1v-12c0-2.6-0.7-4.3-3.7-4.3c-2.2,0-3.7,0.9-4.6,2.3v14c0,1-0.8,1.1-1.8,1.1
					s-1.8-0.2-1.8-1.1V48.6c0-1.6-0.4-1.9-1.2-2.4C0,46,0,45.5,0,45.2c0.1-1,1-1.9,1.7-1.9c0.6,0,1.3,0.4,1.9,0.9
					C4,44.6,4.3,45,4.5,45.4c1.4-1.4,3.4-2.2,6.1-2.2c2.8,0,4.5,1,5.4,2.7c1.4-1.6,3.5-2.7,6.4-2.7c5,0,6.5,3.1,6.5,7.3v12.3
					C28.9,63.8,28.1,63.9,27.1,63.9z"/>
				<path class="st0" d="M48.5,63.9c-0.7,0.2-1.7-0.4-2.2-0.9c-0.4-0.3-0.6-0.8-0.8-1.2c-1.5,1.6-3.9,2.1-5.6,2.1c-5,0-7-2.6-7-5.9
					v-0.3c0-3.3,2.3-5.8,7.4-5.8h4.6v-1c0-3.2-0.8-4.8-4.1-4.8c-1.9,0-3.5,0.6-4.5,1.2c-1.4,0.7-2.7-1.9-1.5-2.7
					c1.8-1.1,3.8-1.5,6-1.5c5.7,0,7.7,2.8,7.7,8.1v7.5c0,1.6,0.4,2.1,1.1,2.5c0.4,0.2,0.8,0.7,0.7,1.2C50,63,49.1,63.8,48.5,63.9z
					 M44.8,54.6h-4.2c-3.4,0-4.3,1.5-4.3,3.1V58c0,1.7,0.9,3.1,4.1,3.1c2.7,0,4.3-1.4,4.3-4.2v-2.3H44.8z"/>
				<path class="st0" d="M68.7,63.9c-1,0-1.7-0.1-1.7-1.1v-12c0-2.6-0.7-4.3-3.8-4.3c-2.3,0-4,1-4.9,2.5v13.8c0,1-0.8,1.1-1.8,1.1
					s-1.8-0.2-1.8-1.1V48.6c0-1.6-0.2-1.8-1-2.3c-0.4-0.2-0.9-0.8-0.4-1.7c0.5-1.1,1.2-1.4,1.8-1.3c0.6,0.1,1,0.4,1.7,0.9
					c0.4,0.4,0.7,0.8,0.9,1.3c1.4-1.5,3.5-2.4,6.3-2.4c5.1,0,6.6,3.2,6.6,7.4v12.3C70.5,63.8,69.7,63.9,68.7,63.9z"/>
				<path class="st0" d="M85.1,63.7h-1.8c-5.5,0-7-3.5-7-8.7v-8.6h-1.8c-0.8,0-0.9-0.7-0.9-1.5s0.1-1.5,0.9-1.5h1.8v-4.8
					c0-1,0.8-1.1,1.8-1.1s1.7,0.2,1.7,1.1v4.8h4.4c0.8,0,0.9,0.7,0.9,1.5s-0.1,1.5-0.9,1.5h-4.4V55c0,4,0.7,5.5,3.9,5.5h1.4
					c0.9,0,1,0.7,1,1.6C86.1,62.9,86,63.7,85.1,63.7z"/>
				<path class="st0" d="M90.8,38.8c-1.1,0-2.1-0.9-2.1-2s0.9-2.1,2.1-2.1s2.1,0.9,2.1,2.1C92.9,37.8,91.9,38.8,90.8,38.8z
					 M90.8,63.9c-1,0-1.7-0.1-1.7-1.1V44.3c0-1,0.8-1.1,1.7-1.1c1,0,1.8,0.2,1.8,1.1v18.5C92.5,63.8,91.8,63.9,90.8,63.9z"/>
				<path class="st0" d="M111.4,63.9c-0.6,0-1,0.1-1.3-0.7c-1.5-3.2-3.7-6.7-5.8-9.6l-2.9,2.9v6.2c0,1-0.8,1.1-1.8,1.1
					s-1.7-0.1-1.7-1.1v-27c0-1,0.8-1.1,1.7-1.1c1,0,1.8,0.1,1.8,1.1v16.7l8.9-9c0.6-0.6,1.4-0.4,2,0.3c0.6,0.6,0.8,1.4,0.2,2
					l-5.7,5.7c2.3,3.1,4.7,7,6.4,10.6C113.8,63.3,112.5,63.9,111.4,63.9z"/>
			</g>
			<g>
				<path class="st0" d="M27.1,63.9c-1,0-1.8-0.1-1.8-1.1v-12c0-2.6-0.7-4.3-3.7-4.3c-2.3,0-3.9,1.1-4.7,2.6c0,0.4,0.1,0.9,0.1,1.4
					v12.3c0,1-0.8,1.1-1.8,1.1s-1.8-0.1-1.8-1.1v-12c0-2.6-0.7-4.3-3.7-4.3c-2.2,0-3.7,0.9-4.6,2.3v14c0,1-0.8,1.1-1.8,1.1
					s-1.8-0.2-1.8-1.1V48.6c0-1.6-0.4-1.9-1.2-2.4C0,46,0,45.5,0,45.2c0.1-1,1-1.9,1.7-1.9c0.6,0,1.3,0.4,1.9,0.9
					C4,44.6,4.3,45,4.5,45.4c1.4-1.4,3.4-2.2,6.1-2.2c2.8,0,4.5,1,5.4,2.7c1.4-1.6,3.5-2.7,6.4-2.7c5,0,6.5,3.1,6.5,7.3v12.3
					C28.9,63.8,28.1,63.9,27.1,63.9z"/>
				<path class="st0" d="M48.5,63.9c-0.7,0.2-1.7-0.4-2.2-0.9c-0.4-0.3-0.6-0.8-0.8-1.2c-1.5,1.6-3.9,2.1-5.6,2.1c-5,0-7-2.6-7-5.9
					v-0.3c0-3.3,2.3-5.8,7.4-5.8h4.6v-1c0-3.2-0.8-4.8-4.1-4.8c-1.9,0-3.5,0.6-4.5,1.2c-1.4,0.7-2.7-1.9-1.5-2.7
					c1.8-1.1,3.8-1.5,6-1.5c5.7,0,7.7,2.8,7.7,8.1v7.5c0,1.6,0.4,2.1,1.1,2.5c0.4,0.2,0.8,0.7,0.7,1.2C50,63,49.1,63.8,48.5,63.9z
					 M44.8,54.6h-4.2c-3.4,0-4.3,1.5-4.3,3.1V58c0,1.7,0.9,3.1,4.1,3.1c2.7,0,4.3-1.4,4.3-4.2v-2.3H44.8z"/>
				<path class="st0" d="M68.7,63.9c-1,0-1.7-0.1-1.7-1.1v-12c0-2.6-0.7-4.3-3.8-4.3c-2.3,0-4,1-4.9,2.5v13.8c0,1-0.8,1.1-1.8,1.1
					s-1.8-0.2-1.8-1.1V48.6c0-1.6-0.2-1.8-1-2.3c-0.4-0.2-0.9-0.8-0.4-1.7c0.5-1.1,1.2-1.4,1.8-1.3c0.6,0.1,1,0.4,1.7,0.9
					c0.4,0.4,0.7,0.8,0.9,1.3c1.4-1.5,3.5-2.4,6.3-2.4c5.1,0,6.6,3.2,6.6,7.4v12.3C70.5,63.8,69.7,63.9,68.7,63.9z"/>
				<path class="st0" d="M85.1,63.7h-1.8c-5.5,0-7-3.5-7-8.7v-8.6h-1.8c-0.8,0-0.9-0.7-0.9-1.5s0.1-1.5,0.9-1.5h1.8v-4.8
					c0-1,0.8-1.1,1.8-1.1s1.7,0.2,1.7,1.1v4.8h4.4c0.8,0,0.9,0.7,0.9,1.5s-0.1,1.5-0.9,1.5h-4.4V55c0,4,0.7,5.5,3.9,5.5h1.4
					c0.9,0,1,0.7,1,1.6C86.1,62.9,86,63.7,85.1,63.7z"/>
				<path class="st0" d="M90.8,38.8c-1.1,0-2.1-0.9-2.1-2s0.9-2.1,2.1-2.1s2.1,0.9,2.1,2.1C92.9,37.8,91.9,38.8,90.8,38.8z
					 M90.8,63.9c-1,0-1.7-0.1-1.7-1.1V44.3c0-1,0.8-1.1,1.7-1.1c1,0,1.8,0.2,1.8,1.1v18.5C92.5,63.8,91.8,63.9,90.8,63.9z"/>
				<path class="st0" d="M111.4,63.9c-0.6,0-1,0.1-1.3-0.7c-1.5-3.2-3.7-6.7-5.8-9.6l-2.9,2.9v6.2c0,1-0.8,1.1-1.8,1.1
					s-1.7-0.1-1.7-1.1v-27c0-1,0.8-1.1,1.7-1.1c1,0,1.8,0.1,1.8,1.1v16.7l8.9-9c0.6-0.6,1.4-0.4,2,0.3c0.6,0.6,0.8,1.4,0.2,2
					l-5.7,5.7c2.3,3.1,4.7,7,6.4,10.6C113.8,63.3,112.5,63.9,111.4,63.9z"/>
			</g>
		</g>
		<path class="st0" d="M31.2,0.4C29.5,0.3,24.3,0,24.3,0c-0.1,0-0.1,0.1-0.1,0.1l51.2,6.3c0.8-0.6,1.6-1.2,2.5-1.6
			c0.1,0,0.2-0.1,0.2-0.1C64.8,3.4,41.1,1.2,31.2,0.4z"/>
		<path class="st0" d="M77.9,28.9c-0.9-0.4-1.8-1-2.5-1.6l-51.2,6.3c0,0,0,0.1,0.1,0.1c0,0,5.2-0.3,6.9-0.4c9.9-0.8,33.6-3,47-4.3
			C78.1,29,78,29,77.9,28.9z"/>
	</g>
</g>
</svg>
